<?xml version="1.0" encoding="UTF-8" standalone="no"?>
<!DOCTYPE svg PUBLIC "-//W3C//DTD SVG 1.1//EN" "http://www.w3.org/Graphics/SVG/1.1/DTD/svg11.dtd">
<svg xmlns="http://www.w3.org/2000/svg" xmlns:xlink="http://www.w3.org/1999/xlink" height="400px" version="1.1" viewBox="0 0 600 400" width="600px" x="0px" y="0px">
  <defs>
    <clipPath id="clip806228160">
      <rect height="360" width="451.640625" x="26.78125" y="10"/>
    </clipPath>
  </defs>
  <rect height="400" style="fill:rgb(210,210,210);stroke:none;" width="600" x="0" y="0"/>
  <g transform="translate(10 194.5)">
    <path d="M4.71875,-0 L3.078125,-0 L3.078125,-6.203125 Q2.171875,-5.359375 0.953125,-4.953125 L0.953125,-6.453125 Q1.59375,-6.65625 2.34375,-7.25 Q3.109375,-7.84375 3.390625,-8.625 L4.71875,-8.625 L4.71875,-0 Z" style="fill:rgb(0,0,0);stroke:none;"/>
  </g>
  <g transform="translate(10 360.6)">
    <path d="M3.296875,-8.625 Q4.546875,-8.625 5.25,-7.734375 Q6.078125,-6.6875 6.078125,-4.234375 Q6.078125,-1.796875 5.234375,-0.734375 Q4.546875,0.140625 3.296875,0.140625 Q2.046875,0.140625 1.265625,-0.8125 Q0.5,-1.78125 0.5,-4.25 Q0.5,-6.6875 1.34375,-7.75 Q2.046875,-8.625 3.296875,-8.625 Z M3.296875,-7.265625 Q3,-7.265625 2.765625,-7.0625 Q2.53125,-6.875 2.390625,-6.390625 Q2.234375,-5.75 2.234375,-4.234375 Q2.234375,-2.71875 2.375,-2.15625 Q2.53125,-1.59375 2.765625,-1.40625 Q3,-1.21875 3.296875,-1.21875 Q3.59375,-1.21875 3.828125,-1.40625 Q4.0625,-1.59375 4.1875,-2.09375 Q4.359375,-2.71875 4.359375,-4.234375 Q4.359375,-5.75 4.203125,-6.3125 Q4.0625,-6.875 3.828125,-7.0625 Q3.59375,-7.265625 3.296875,-7.265625 Z" style="fill:rgb(0,0,0);stroke:none;"/>
  </g>
  <g transform="translate(10 28.899999999999977)">
    <path d="M6.078125,-1.53125 L6.078125,-0 L0.296875,-0 Q0.390625,-0.875 0.859375,-1.640625 Q1.328125,-2.421875 2.71875,-3.703125 Q3.828125,-4.734375 4.078125,-5.109375 Q4.421875,-5.625 4.421875,-6.125 Q4.421875,-6.671875 4.125,-6.96875 Q3.828125,-7.265625 3.3125,-7.265625 Q2.796875,-7.265625 2.484375,-6.953125 Q2.1875,-6.640625 2.140625,-5.921875 L0.5,-6.078125 Q0.640625,-7.4375 1.40625,-8.03125 Q2.1875,-8.625 3.34375,-8.625 Q4.625,-8.625 5.34375,-7.9375 Q6.078125,-7.25 6.078125,-6.234375 Q6.078125,-5.65625 5.859375,-5.125 Q5.65625,-4.609375 5.203125,-4.03125 Q4.90625,-3.65625 4.125,-2.9375 Q3.34375,-2.21875 3.140625,-1.984375 Q2.9375,-1.75 2.796875,-1.53125 L6.078125,-1.53125 Z" style="fill:rgb(0,0,0);stroke:none;"/>
  </g>
  <g>
    <line style="fill:none;stroke:rgb(130,130,130);stroke-miterlimit:10;stroke-linecap:square;" x1="19.78125" x2="22.78125" y1="355.6" y2="355.6"/>
    <line style="fill:none;stroke:rgb(130,130,130);stroke-miterlimit:10;stroke-linecap:square;" x1="19.78125" x2="22.78125" y1="190" y2="190"/>
    <line style="fill:none;stroke:rgb(130,130,130);stroke-miterlimit:10;stroke-linecap:square;" x1="19.78125" x2="22.78125" y1="24.399999999999977" y2="24.399999999999977"/>
    <line style="fill:none;stroke:rgb(130,130,130);stroke-miterlimit:10;stroke-linecap:square;" x1="22.78125" x2="22.78125" y1="10" y2="370"/>
  </g>
  <g transform="translate(94.902734375 390)">
    <path d="M4.71875,-0 L3.078125,-0 L3.078125,-6.203125 Q2.171875,-5.359375 0.953125,-4.953125 L0.953125,-6.453125 Q1.59375,-6.65625 2.34375,-7.25 Q3.109375,-7.84375 3.390625,-8.625 L4.71875,-8.625 L4.71875,-0 Z" style="fill:rgb(0,0,0);stroke:none;"/>
  </g>
  <g transform="translate(197.772265625 390)">
    <path d="M6.078125,-1.53125 L6.078125,-0 L0.296875,-0 Q0.390625,-0.875 0.859375,-1.640625 Q1.328125,-2.421875 2.71875,-3.703125 Q3.828125,-4.734375 4.078125,-5.109375 Q4.421875,-5.625 4.421875,-6.125 Q4.421875,-6.671875 4.125,-6.96875 Q3.828125,-7.265625 3.3125,-7.265625 Q2.796875,-7.265625 2.484375,-6.953125 Q2.1875,-6.640625 2.140625,-5.921875 L0.5,-6.078125 Q0.640625,-7.4375 1.40625,-8.03125 Q2.1875,-8.625 3.34375,-8.625 Q4.625,-8.625 5.34375,-7.9375 Q6.078125,-7.25 6.078125,-6.234375 Q6.078125,-5.65625 5.859375,-5.125 Q5.65625,-4.609375 5.203125,-4.03125 Q4.90625,-3.65625 4.125,-2.9375 Q3.34375,-2.21875 3.140625,-1.984375 Q2.9375,-1.75 2.796875,-1.53125 L6.078125,-1.53125 Z" style="fill:rgb(0,0,0);stroke:none;"/>
  </g>
  <g transform="translate(301.688671875 389.859375)">
    <path d="M0.453125,-2.28125 L2.046875,-2.46875 Q2.125,-1.859375 2.453125,-1.53125 Q2.796875,-1.21875 3.265625,-1.21875 Q3.78125,-1.21875 4.125,-1.609375 Q4.46875,-2 4.46875,-2.65625 Q4.46875,-3.265625 4.125,-3.625 Q3.796875,-4 3.328125,-4 Q3,-4 2.5625,-3.875 L2.75,-5.21875 Q3.421875,-5.203125 3.765625,-5.5 Q4.125,-5.8125 4.125,-6.328125 Q4.125,-6.75 3.859375,-7 Q3.609375,-7.265625 3.171875,-7.265625 Q2.75,-7.265625 2.453125,-6.96875 Q2.15625,-6.6875 2.09375,-6.125 L0.578125,-6.375 Q0.734375,-7.15625 1.046875,-7.625 Q1.375,-8.09375 1.9375,-8.359375 Q2.515625,-8.625 3.21875,-8.625 Q4.4375,-8.625 5.171875,-7.859375 Q5.765625,-7.21875 5.765625,-6.421875 Q5.765625,-5.296875 4.53125,-4.625 Q5.28125,-4.453125 5.71875,-3.90625 Q6.15625,-3.359375 6.15625,-2.578125 Q6.15625,-1.453125 5.328125,-0.65625 Q4.5,0.140625 3.28125,0.140625 Q2.109375,0.140625 1.34375,-0.53125 Q0.578125,-1.203125 0.453125,-2.28125 Z" style="fill:rgb(0,0,0);stroke:none;"/>
  </g>
  <g transform="translate(405.526953125 389.859375)">
    <path d="M0.53125,-2.203125 L2.171875,-2.375 Q2.25,-1.828125 2.59375,-1.5 Q2.9375,-1.171875 3.390625,-1.171875 Q3.90625,-1.171875 4.265625,-1.59375 Q4.625,-2.015625 4.625,-2.859375 Q4.625,-3.640625 4.265625,-4.03125 Q3.90625,-4.4375 3.34375,-4.4375 Q2.625,-4.4375 2.0625,-3.8125 L0.734375,-4 L1.578125,-8.46875 L5.9375,-8.46875 L5.9375,-6.9375 L2.828125,-6.9375 L2.5625,-5.46875 Q3.125,-5.75 3.6875,-5.75 Q4.78125,-5.75 5.546875,-4.953125 Q6.3125,-4.15625 6.3125,-2.890625 Q6.3125,-1.828125 5.703125,-0.984375 Q4.859375,0.140625 3.375,0.140625 Q2.1875,0.140625 1.4375,-0.484375 Q0.6875,-1.125 0.53125,-2.203125 Z" style="fill:rgb(0,0,0);stroke:none;"/>
  </g>
  <g>
    <line style="fill:none;stroke:rgb(130,130,130);stroke-miterlimit:10;stroke-linecap:square;" x1="96.785546875" x2="96.785546875" y1="377.234375" y2="374.234375"/>
    <line style="fill:none;stroke:rgb(130,130,130);stroke-miterlimit:10;stroke-linecap:square;" x1="200.662890625" x2="200.662890625" y1="377.234375" y2="374.234375"/>
    <line style="fill:none;stroke:rgb(130,130,130);stroke-miterlimit:10;stroke-linecap:square;" x1="304.540234375" x2="304.540234375" y1="377.234375" y2="374.234375"/>
    <line style="fill:none;stroke:rgb(130,130,130);stroke-miterlimit:10;stroke-linecap:square;" x1="408.417578125" x2="408.417578125" y1="377.234375" y2="374.234375"/>
    <line style="fill:none;stroke:rgb(130,130,130);stroke-miterlimit:10;stroke-linecap:square;" x1="26" x2="478" y1="374" y2="374"/>
    <rect height="360" style="fill:rgb(255,255,255);stroke:none;" width="451.640625" x="26.78125" y="10"/>
    <path d="M34.78125,355.1 L34.78125,355.1 L37.78125,355.1 L37.78125,356.1 L34.78125,356.1 Z M42.78125,355.1 L42.78125,355.1 L45.78125,355.1 L45.78125,356.1 L42.78125,356.1 Z M50.78125,355.1 L50.78125,355.1 L53.78125,355.1 L53.78125,356.1 L50.78125,356.1 Z M58.78125,355.1 L58.78125,355.1 L61.78125,355.1 L61.78125,356.1 L58.78125,356.1 Z M66.78125,355.1 L66.78125,355.1 L69.78125,355.1 L69.78125,356.1 L66.78125,356.1 Z M74.78125,355.1 L74.78125,355.1 L77.78125,355.1 L77.78125,356.1 L74.78125,356.1 Z M82.78125,355.1 L82.78125,355.1 L85.78125,355.1 L85.78125,356.1 L82.78125,356.1 Z M90.78125,355.1 L90.78125,355.1 L93.78125,355.1 L93.78125,356.1 L90.78125,356.1 Z M98.78125,355.1 L98.78125,355.1 L101.78125,355.1 L101.78125,356.1 L98.78125,356.1 Z M106.78125,355.1 L106.78125,355.1 L109.78125,355.1 L109.78125,356.1 L106.78125,356.1 Z M114.78125,355.1 L114.78125,355.1 L117.78125,355.1 L117.78125,356.1 L114.78125,356.1 Z M122.78125,355.1 L122.78125,355.1 L125.78125,355.1 L125.78125,356.1 L122.78125,356.1 Z M130.78125,355.1 L130.78125,355.1 L133.78125,355.1 L133.78125,356.1 L130.78125,356.1 Z M138.78125,355.1 L138.78125,355.1 L141.78125,355.1 L141.78125,356.1 L138.78125,356.1 Z M146.78125,355.1 L146.78125,355.1 L149.78125,355.1 L149.78125,356.1 L146.78125,356.1 Z M154.78125,355.1 L154.78125,355.1 L157.78125,355.1 L157.78125,356.1 L154.78125,356.1 Z M162.78125,355.1 L162.78125,355.1 L165.78125,355.1 L165.78125,356.1 L162.78125,356.1 Z M170.78125,355.1 L170.78125,355.1 L173.78125,355.1 L173.78125,356.1 L170.78125,356.1 Z M178.78125,355.1 L178.78125,355.1 L181.78125,355.1 L181.78125,356.1 L178.78125,356.1 Z M186.78125,355.1 L186.78125,355.1 L189.78125,355.1 L189.78125,356.1 L186.78125,356.1 Z M194.78125,355.1 L194.78125,355.1 L197.78125,355.1 L197.78125,356.1 L194.78125,356.1 Z M202.78125,355.1 L202.78125,355.1 L205.78125,355.1 L205.78125,356.1 L202.78125,356.1 Z M210.78125,355.1 L210.78125,355.1 L213.78125,355.1 L213.78125,356.1 L210.78125,356.1 Z M218.78125,355.1 L218.78125,355.1 L221.78125,355.1 L221.78125,356.1 L218.78125,356.1 Z M226.78125,355.1 L226.78125,355.1 L229.78125,355.1 L229.78125,356.1 L226.78125,356.1 Z M234.78125,355.1 L234.78125,355.1 L237.78125,355.1 L237.78125,356.1 L234.78125,356.1 Z M242.78125,355.1 L242.78125,355.1 L245.78125,355.1 L245.78125,356.1 L242.78125,356.1 Z M250.78125,355.1 L250.78125,355.1 L253.78125,355.1 L253.78125,356.1 L250.78125,356.1 Z M258.78125,355.1 L258.78125,355.1 L261.78125,355.1 L261.78125,356.1 L258.78125,356.1 Z M266.78125,355.1 L266.78125,355.1 L269.78125,355.1 L269.78125,356.1 L266.78125,356.1 Z M274.78125,355.1 L274.78125,355.1 L277.78125,355.1 L277.78125,356.1 L274.78125,356.1 Z M282.78125,355.1 L282.78125,355.1 L285.78125,355.1 L285.78125,356.1 L282.78125,356.1 Z M290.78125,355.1 L290.78125,355.1 L293.78125,355.1 L293.78125,356.1 L290.78125,356.1 Z M298.78125,355.1 L298.78125,355.1 L301.78125,355.1 L301.78125,356.1 L298.78125,356.1 Z M306.78125,355.1 L306.78125,355.1 L309.78125,355.1 L309.78125,356.1 L306.78125,356.1 Z M314.78125,355.1 L314.78125,355.1 L317.78125,355.1 L317.78125,356.1 L314.78125,356.1 Z M322.78125,355.1 L322.78125,355.1 L325.78125,355.1 L325.78125,356.1 L322.78125,356.1 Z M330.78125,355.1 L330.78125,355.1 L333.78125,355.1 L333.78125,356.1 L330.78125,356.1 Z M338.78125,355.1 L338.78125,355.1 L341.78125,355.1 L341.78125,356.1 L338.78125,356.1 Z M346.78125,355.1 L346.78125,355.1 L349.78125,355.1 L349.78125,356.1 L346.78125,356.1 Z M354.78125,355.1 L354.78125,355.1 L357.78125,355.1 L357.78125,356.1 L354.78125,356.1 Z M362.78125,355.1 L362.78125,355.1 L365.78125,355.1 L365.78125,356.1 L362.78125,356.1 Z M370.78125,355.1 L370.78125,355.1 L373.78125,355.1 L373.78125,356.1 L370.78125,356.1 Z M378.78125,355.1 L378.78125,355.1 L381.78125,355.1 L381.78125,356.1 L378.78125,356.1 Z M386.78125,355.1 L386.78125,355.1 L389.78125,355.1 L389.78125,356.1 L386.78125,356.1 Z M394.78125,355.1 L394.78125,355.1 L397.78125,355.1 L397.78125,356.1 L394.78125,356.1 Z M402.78125,355.1 L402.78125,355.1 L405.78125,355.1 L405.78125,356.1 L402.78125,356.1 Z M410.78125,355.1 L410.78125,355.1 L413.78125,355.1 L413.78125,356.1 L410.78125,356.1 Z M418.78125,355.1 L418.78125,355.1 L421.78125,355.1 L421.78125,356.1 L418.78125,356.1 Z M426.78125,355.1 L426.78125,355.1 L429.78125,355.1 L429.78125,356.1 L426.78125,356.1 Z M434.78125,355.1 L434.78125,355.1 L437.78125,355.1 L437.78125,356.1 L434.78125,356.1 Z M442.78125,355.1 L442.78125,355.1 L445.78125,355.1 L445.78125,356.1 L442.78125,356.1 Z M450.78125,355.1 L450.78125,355.1 L453.78125,355.1 L453.78125,356.1 L450.78125,356.1 Z M458.78125,355.1 L458.78125,355.1 L461.78125,355.1 L461.78125,356.1 L458.78125,356.1 Z M466.78125,355.1 L466.78125,355.1 L469.78125,355.1 L469.78125,356.1 L466.78125,356.1 Z M474.78125,355.1 L474.78125,355.1 L477.78125,355.1 L477.78125,356.1 L474.78125,356.1 Z M26.78125,355.1 L26.78125,355.1 L29.78125,355.1 L29.78125,356.1 L26.78125,356.1 Z" style="fill:none;stroke:rgb(210,210,210);stroke-miterlimit:10;stroke-linejoin:bevel;stroke-dasharray:3,5;"/>
    <path d="M34.78125,189.5 L34.78125,189.5 L37.78125,189.5 L37.78125,190.5 L34.78125,190.5 Z M42.78125,189.5 L42.78125,189.5 L45.78125,189.5 L45.78125,190.5 L42.78125,190.5 Z M50.78125,189.5 L50.78125,189.5 L53.78125,189.5 L53.78125,190.5 L50.78125,190.5 Z M58.78125,189.5 L58.78125,189.5 L61.78125,189.5 L61.78125,190.5 L58.78125,190.5 Z M66.78125,189.5 L66.78125,189.5 L69.78125,189.5 L69.78125,190.5 L66.78125,190.5 Z M74.78125,189.5 L74.78125,189.5 L77.78125,189.5 L77.78125,190.5 L74.78125,190.5 Z M82.78125,189.5 L82.78125,189.5 L85.78125,189.5 L85.78125,190.5 L82.78125,190.5 Z M90.78125,189.5 L90.78125,189.5 L93.78125,189.5 L93.78125,190.5 L90.78125,190.5 Z M98.78125,189.5 L98.78125,189.5 L101.78125,189.5 L101.78125,190.5 L98.78125,190.5 Z M106.78125,189.5 L106.78125,189.5 L109.78125,189.5 L109.78125,190.5 L106.78125,190.5 Z M114.78125,189.5 L114.78125,189.5 L117.78125,189.5 L117.78125,190.5 L114.78125,190.5 Z M122.78125,189.5 L122.78125,189.5 L125.78125,189.5 L125.78125,190.5 L122.78125,190.5 Z M130.78125,189.5 L130.78125,189.5 L133.78125,189.5 L133.78125,190.5 L130.78125,190.5 Z M138.78125,189.5 L138.78125,189.5 L141.78125,189.5 L141.78125,190.5 L138.78125,190.5 Z M146.78125,189.5 L146.78125,189.5 L149.78125,189.5 L149.78125,190.5 L146.78125,190.5 Z M154.78125,189.5 L154.78125,189.5 L157.78125,189.5 L157.78125,190.5 L154.78125,190.5 Z M162.78125,189.5 L162.78125,189.5 L165.78125,189.5 L165.78125,190.5 L162.78125,190.5 Z M170.78125,189.5 L170.78125,189.5 L173.78125,189.5 L173.78125,190.5 L170.78125,190.5 Z M178.78125,189.5 L178.78125,189.5 L181.78125,189.5 L181.78125,190.5 L178.78125,190.5 Z M186.78125,189.5 L186.78125,189.5 L189.78125,189.5 L189.78125,190.5 L186.78125,190.5 Z M194.78125,189.5 L194.78125,189.5 L197.78125,189.5 L197.78125,190.5 L194.78125,190.5 Z M202.78125,189.5 L202.78125,189.5 L205.78125,189.5 L205.78125,190.5 L202.78125,190.5 Z M210.78125,189.5 L210.78125,189.5 L213.78125,189.5 L213.78125,190.5 L210.78125,190.5 Z M218.78125,189.5 L218.78125,189.5 L221.78125,189.5 L221.78125,190.5 L218.78125,190.5 Z M226.78125,189.5 L226.78125,189.5 L229.78125,189.5 L229.78125,190.5 L226.78125,190.5 Z M234.78125,189.5 L234.78125,189.5 L237.78125,189.5 L237.78125,190.5 L234.78125,190.5 Z M242.78125,189.5 L242.78125,189.5 L245.78125,189.5 L245.78125,190.5 L242.78125,190.5 Z M250.78125,189.5 L250.78125,189.5 L253.78125,189.5 L253.78125,190.5 L250.78125,190.5 Z M258.78125,189.5 L258.78125,189.5 L261.78125,189.5 L261.78125,190.5 L258.78125,190.5 Z M266.78125,189.5 L266.78125,189.5 L269.78125,189.5 L269.78125,190.5 L266.78125,190.5 Z M274.78125,189.5 L274.78125,189.5 L277.78125,189.5 L277.78125,190.5 L274.78125,190.5 Z M282.78125,189.5 L282.78125,189.5 L285.78125,189.5 L285.78125,190.5 L282.78125,190.5 Z M290.78125,189.5 L290.78125,189.5 L293.78125,189.5 L293.78125,190.5 L290.78125,190.5 Z M298.78125,189.5 L298.78125,189.5 L301.78125,189.5 L301.78125,190.5 L298.78125,190.5 Z M306.78125,189.5 L306.78125,189.5 L309.78125,189.5 L309.78125,190.5 L306.78125,190.5 Z M314.78125,189.5 L314.78125,189.5 L317.78125,189.5 L317.78125,190.5 L314.78125,190.5 Z M322.78125,189.5 L322.78125,189.5 L325.78125,189.5 L325.78125,190.5 L322.78125,190.5 Z M330.78125,189.5 L330.78125,189.5 L333.78125,189.5 L333.78125,190.5 L330.78125,190.5 Z M338.78125,189.5 L338.78125,189.5 L341.78125,189.5 L341.78125,190.5 L338.78125,190.5 Z M346.78125,189.5 L346.78125,189.5 L349.78125,189.5 L349.78125,190.5 L346.78125,190.5 Z M354.78125,189.5 L354.78125,189.5 L357.78125,189.5 L357.78125,190.5 L354.78125,190.5 Z M362.78125,189.5 L362.78125,189.5 L365.78125,189.5 L365.78125,190.5 L362.78125,190.5 Z M370.78125,189.5 L370.78125,189.5 L373.78125,189.5 L373.78125,190.5 L370.78125,190.5 Z M378.78125,189.5 L378.78125,189.5 L381.78125,189.5 L381.78125,190.5 L378.78125,190.5 Z M386.78125,189.5 L386.78125,189.5 L389.78125,189.5 L389.78125,190.5 L386.78125,190.5 Z M394.78125,189.5 L394.78125,189.5 L397.78125,189.5 L397.78125,190.5 L394.78125,190.5 Z M402.78125,189.5 L402.78125,189.5 L405.78125,189.5 L405.78125,190.5 L402.78125,190.5 Z M410.78125,189.5 L410.78125,189.5 L413.78125,189.5 L413.78125,190.5 L410.78125,190.5 Z M418.78125,189.5 L418.78125,189.5 L421.78125,189.5 L421.78125,190.5 L418.78125,190.5 Z M426.78125,189.5 L426.78125,189.5 L429.78125,189.5 L429.78125,190.5 L426.78125,190.5 Z M434.78125,189.5 L434.78125,189.5 L437.78125,189.5 L437.78125,190.5 L434.78125,190.5 Z M442.78125,189.5 L442.78125,189.5 L445.78125,189.5 L445.78125,190.5 L442.78125,190.5 Z M450.78125,189.5 L450.78125,189.5 L453.78125,189.5 L453.78125,190.5 L450.78125,190.5 Z M458.78125,189.5 L458.78125,189.5 L461.78125,189.5 L461.78125,190.5 L458.78125,190.5 Z M466.78125,189.5 L466.78125,189.5 L469.78125,189.5 L469.78125,190.5 L466.78125,190.5 Z M474.78125,189.5 L474.78125,189.5 L477.78125,189.5 L477.78125,190.5 L474.78125,190.5 Z M26.78125,189.5 L26.78125,189.5 L29.78125,189.5 L29.78125,190.5 L26.78125,190.5 Z" style="fill:none;stroke:rgb(210,210,210);stroke-miterlimit:10;stroke-linejoin:bevel;stroke-dasharray:3,5;"/>
    <path d="M34.78125,23.899999999999977 L34.78125,23.899999999999977 L37.78125,23.899999999999977 L37.78125,24.899999999999977 L34.78125,24.899999999999977 Z M42.78125,23.899999999999977 L42.78125,23.899999999999977 L45.78125,23.899999999999977 L45.78125,24.899999999999977 L42.78125,24.899999999999977 Z M50.78125,23.899999999999977 L50.78125,23.899999999999977 L53.78125,23.899999999999977 L53.78125,24.899999999999977 L50.78125,24.899999999999977 Z M58.78125,23.899999999999977 L58.78125,23.899999999999977 L61.78125,23.899999999999977 L61.78125,24.899999999999977 L58.78125,24.899999999999977 Z M66.78125,23.899999999999977 L66.78125,23.899999999999977 L69.78125,23.899999999999977 L69.78125,24.899999999999977 L66.78125,24.899999999999977 Z M74.78125,23.899999999999977 L74.78125,23.899999999999977 L77.78125,23.899999999999977 L77.78125,24.899999999999977 L74.78125,24.899999999999977 Z M82.78125,23.899999999999977 L82.78125,23.899999999999977 L85.78125,23.899999999999977 L85.78125,24.899999999999977 L82.78125,24.899999999999977 Z M90.78125,23.899999999999977 L90.78125,23.899999999999977 L93.78125,23.899999999999977 L93.78125,24.899999999999977 L90.78125,24.899999999999977 Z M98.78125,23.899999999999977 L98.78125,23.899999999999977 L101.78125,23.899999999999977 L101.78125,24.899999999999977 L98.78125,24.899999999999977 Z M106.78125,23.899999999999977 L106.78125,23.899999999999977 L109.78125,23.899999999999977 L109.78125,24.899999999999977 L106.78125,24.899999999999977 Z M114.78125,23.899999999999977 L114.78125,23.899999999999977 L117.78125,23.899999999999977 L117.78125,24.899999999999977 L114.78125,24.899999999999977 Z M122.78125,23.899999999999977 L122.78125,23.899999999999977 L125.78125,23.899999999999977 L125.78125,24.899999999999977 L122.78125,24.899999999999977 Z M130.78125,23.899999999999977 L130.78125,23.899999999999977 L133.78125,23.899999999999977 L133.78125,24.899999999999977 L130.78125,24.899999999999977 Z M138.78125,23.899999999999977 L138.78125,23.899999999999977 L141.78125,23.899999999999977 L141.78125,24.899999999999977 L138.78125,24.899999999999977 Z M146.78125,23.899999999999977 L146.78125,23.899999999999977 L149.78125,23.899999999999977 L149.78125,24.899999999999977 L146.78125,24.899999999999977 Z M154.78125,23.899999999999977 L154.78125,23.899999999999977 L157.78125,23.899999999999977 L157.78125,24.899999999999977 L154.78125,24.899999999999977 Z M162.78125,23.899999999999977 L162.78125,23.899999999999977 L165.78125,23.899999999999977 L165.78125,24.899999999999977 L162.78125,24.899999999999977 Z M170.78125,23.899999999999977 L170.78125,23.899999999999977 L173.78125,23.899999999999977 L173.78125,24.899999999999977 L170.78125,24.899999999999977 Z M178.78125,23.899999999999977 L178.78125,23.899999999999977 L181.78125,23.899999999999977 L181.78125,24.899999999999977 L178.78125,24.899999999999977 Z M186.78125,23.899999999999977 L186.78125,23.899999999999977 L189.78125,23.899999999999977 L189.78125,24.899999999999977 L186.78125,24.899999999999977 Z M194.78125,23.899999999999977 L194.78125,23.899999999999977 L197.78125,23.899999999999977 L197.78125,24.899999999999977 L194.78125,24.899999999999977 Z M202.78125,23.899999999999977 L202.78125,23.899999999999977 L205.78125,23.899999999999977 L205.78125,24.899999999999977 L202.78125,24.899999999999977 Z M210.78125,23.899999999999977 L210.78125,23.899999999999977 L213.78125,23.899999999999977 L213.78125,24.899999999999977 L210.78125,24.899999999999977 Z M218.78125,23.899999999999977 L218.78125,23.899999999999977 L221.78125,23.899999999999977 L221.78125,24.899999999999977 L218.78125,24.899999999999977 Z M226.78125,23.899999999999977 L226.78125,23.899999999999977 L229.78125,23.899999999999977 L229.78125,24.899999999999977 L226.78125,24.899999999999977 Z M234.78125,23.899999999999977 L234.78125,23.899999999999977 L237.78125,23.899999999999977 L237.78125,24.899999999999977 L234.78125,24.899999999999977 Z M242.78125,23.899999999999977 L242.78125,23.899999999999977 L245.78125,23.899999999999977 L245.78125,24.899999999999977 L242.78125,24.899999999999977 Z M250.78125,23.899999999999977 L250.78125,23.899999999999977 L253.78125,23.899999999999977 L253.78125,24.899999999999977 L250.78125,24.899999999999977 Z M258.78125,23.899999999999977 L258.78125,23.899999999999977 L261.78125,23.899999999999977 L261.78125,24.899999999999977 L258.78125,24.899999999999977 Z M266.78125,23.899999999999977 L266.78125,23.899999999999977 L269.78125,23.899999999999977 L269.78125,24.899999999999977 L266.78125,24.899999999999977 Z M274.78125,23.899999999999977 L274.78125,23.899999999999977 L277.78125,23.899999999999977 L277.78125,24.899999999999977 L274.78125,24.899999999999977 Z M282.78125,23.899999999999977 L282.78125,23.899999999999977 L285.78125,23.899999999999977 L285.78125,24.899999999999977 L282.78125,24.899999999999977 Z M290.78125,23.899999999999977 L290.78125,23.899999999999977 L293.78125,23.899999999999977 L293.78125,24.899999999999977 L290.78125,24.899999999999977 Z M298.78125,23.899999999999977 L298.78125,23.899999999999977 L301.78125,23.899999999999977 L301.78125,24.899999999999977 L298.78125,24.899999999999977 Z M306.78125,23.899999999999977 L306.78125,23.899999999999977 L309.78125,23.899999999999977 L309.78125,24.899999999999977 L306.78125,24.899999999999977 Z M314.78125,23.899999999999977 L314.78125,23.899999999999977 L317.78125,23.899999999999977 L317.78125,24.899999999999977 L314.78125,24.899999999999977 Z M322.78125,23.899999999999977 L322.78125,23.899999999999977 L325.78125,23.899999999999977 L325.78125,24.899999999999977 L322.78125,24.899999999999977 Z M330.78125,23.899999999999977 L330.78125,23.899999999999977 L333.78125,23.899999999999977 L333.78125,24.899999999999977 L330.78125,24.899999999999977 Z M338.78125,23.899999999999977 L338.78125,23.899999999999977 L341.78125,23.899999999999977 L341.78125,24.899999999999977 L338.78125,24.899999999999977 Z M346.78125,23.899999999999977 L346.78125,23.899999999999977 L349.78125,23.899999999999977 L349.78125,24.899999999999977 L346.78125,24.899999999999977 Z M354.78125,23.899999999999977 L354.78125,23.899999999999977 L357.78125,23.899999999999977 L357.78125,24.899999999999977 L354.78125,24.899999999999977 Z M362.78125,23.899999999999977 L362.78125,23.899999999999977 L365.78125,23.899999999999977 L365.78125,24.899999999999977 L362.78125,24.899999999999977 Z M370.78125,23.899999999999977 L370.78125,23.899999999999977 L373.78125,23.899999999999977 L373.78125,24.899999999999977 L370.78125,24.899999999999977 Z M378.78125,23.899999999999977 L378.78125,23.899999999999977 L381.78125,23.899999999999977 L381.78125,24.899999999999977 L378.78125,24.899999999999977 Z M386.78125,23.899999999999977 L386.78125,23.899999999999977 L389.78125,23.899999999999977 L389.78125,24.899999999999977 L386.78125,24.899999999999977 Z M394.78125,23.899999999999977 L394.78125,23.899999999999977 L397.78125,23.899999999999977 L397.78125,24.899999999999977 L394.78125,24.899999999999977 Z M402.78125,23.899999999999977 L402.78125,23.899999999999977 L405.78125,23.899999999999977 L405.78125,24.899999999999977 L402.78125,24.899999999999977 Z M410.78125,23.899999999999977 L410.78125,23.899999999999977 L413.78125,23.899999999999977 L413.78125,24.899999999999977 L410.78125,24.899999999999977 Z M418.78125,23.899999999999977 L418.78125,23.899999999999977 L421.78125,23.899999999999977 L421.78125,24.899999999999977 L418.78125,24.899999999999977 Z M426.78125,23.899999999999977 L426.78125,23.899999999999977 L429.78125,23.899999999999977 L429.78125,24.899999999999977 L426.78125,24.899999999999977 Z M434.78125,23.899999999999977 L434.78125,23.899999999999977 L437.78125,23.899999999999977 L437.78125,24.899999999999977 L434.78125,24.899999999999977 Z M442.78125,23.899999999999977 L442.78125,23.899999999999977 L445.78125,23.899999999999977 L445.78125,24.899999999999977 L442.78125,24.899999999999977 Z M450.78125,23.899999999999977 L450.78125,23.899999999999977 L453.78125,23.899999999999977 L453.78125,24.899999999999977 L450.78125,24.899999999999977 Z M458.78125,23.899999999999977 L458.78125,23.899999999999977 L461.78125,23.899999999999977 L461.78125,24.899999999999977 L458.78125,24.899999999999977 Z M466.78125,23.899999999999977 L466.78125,23.899999999999977 L469.78125,23.899999999999977 L469.78125,24.899999999999977 L466.78125,24.899999999999977 Z M474.78125,23.899999999999977 L474.78125,23.899999999999977 L477.78125,23.899999999999977 L477.78125,24.899999999999977 L474.78125,24.899999999999977 Z M26.78125,23.899999999999977 L26.78125,23.899999999999977 L29.78125,23.899999999999977 L29.78125,24.899999999999977 L26.78125,24.899999999999977 Z" style="fill:none;stroke:rgb(210,210,210);stroke-miterlimit:10;stroke-linejoin:bevel;stroke-dasharray:3,5;"/>
    <path d="M97.285546875,18 L97.285546875,18 L97.285546875,21 L96.285546875,21 L96.285546875,18 Z M97.285546875,26 L97.285546875,26 L97.285546875,29 L96.285546875,29 L96.285546875,26 Z M97.285546875,34 L97.285546875,34 L97.285546875,37 L96.285546875,37 L96.285546875,34 Z M97.285546875,42 L97.285546875,42 L97.285546875,45 L96.285546875,45 L96.285546875,42 Z M97.285546875,50 L97.285546875,50 L97.285546875,53 L96.285546875,53 L96.285546875,50 Z M97.285546875,58 L97.285546875,58 L97.285546875,61 L96.285546875,61 L96.285546875,58 Z M97.285546875,66 L97.285546875,66 L97.285546875,69 L96.285546875,69 L96.285546875,66 Z M97.285546875,74 L97.285546875,74 L97.285546875,77 L96.285546875,77 L96.285546875,74 Z M97.285546875,82 L97.285546875,82 L97.285546875,85 L96.285546875,85 L96.285546875,82 Z M97.285546875,90 L97.285546875,90 L97.285546875,93 L96.285546875,93 L96.285546875,90 Z M97.285546875,98 L97.285546875,98 L97.285546875,101 L96.285546875,101 L96.285546875,98 Z M97.285546875,106 L97.285546875,106 L97.285546875,109 L96.285546875,109 L96.285546875,106 Z M97.285546875,114 L97.285546875,114 L97.285546875,117 L96.285546875,117 L96.285546875,114 Z M97.285546875,122 L97.285546875,122 L97.285546875,125 L96.285546875,125 L96.285546875,122 Z M97.285546875,130 L97.285546875,130 L97.285546875,133 L96.285546875,133 L96.285546875,130 Z M97.285546875,138 L97.285546875,138 L97.285546875,141 L96.285546875,141 L96.285546875,138 Z M97.285546875,146 L97.285546875,146 L97.285546875,149 L96.285546875,149 L96.285546875,146 Z M97.285546875,154 L97.285546875,154 L97.285546875,157 L96.285546875,157 L96.285546875,154 Z M97.285546875,162 L97.285546875,162 L97.285546875,165 L96.285546875,165 L96.285546875,162 Z M97.285546875,170 L97.285546875,170 L97.285546875,173 L96.285546875,173 L96.285546875,170 Z M97.285546875,178 L97.285546875,178 L97.285546875,181 L96.285546875,181 L96.285546875,178 Z M97.285546875,186 L97.285546875,186 L97.285546875,189 L96.285546875,189 L96.285546875,186 Z M97.285546875,194 L97.285546875,194 L97.285546875,197 L96.285546875,197 L96.285546875,194 Z M97.285546875,202 L97.285546875,202 L97.285546875,205 L96.285546875,205 L96.285546875,202 Z M97.285546875,210 L97.285546875,210 L97.285546875,213 L96.285546875,213 L96.285546875,210 Z M97.285546875,218 L97.285546875,218 L97.285546875,221 L96.285546875,221 L96.285546875,218 Z M97.285546875,226 L97.285546875,226 L97.285546875,229 L96.285546875,229 L96.285546875,226 Z M97.285546875,234 L97.285546875,234 L97.285546875,237 L96.285546875,237 L96.285546875,234 Z M97.285546875,242 L97.285546875,242 L97.285546875,245 L96.285546875,245 L96.285546875,242 Z M97.285546875,250 L97.285546875,250 L97.285546875,253 L96.285546875,253 L96.285546875,250 Z M97.285546875,258 L97.285546875,258 L97.285546875,261 L96.285546875,261 L96.285546875,258 Z M97.285546875,266 L97.285546875,266 L97.285546875,269 L96.285546875,269 L96.285546875,266 Z M97.285546875,274 L97.285546875,274 L97.285546875,277 L96.285546875,277 L96.285546875,274 Z M97.285546875,282 L97.285546875,282 L97.285546875,285 L96.285546875,285 L96.285546875,282 Z M97.285546875,290 L97.285546875,290 L97.285546875,293 L96.285546875,293 L96.285546875,290 Z M97.285546875,298 L97.285546875,298 L97.285546875,301 L96.285546875,301 L96.285546875,298 Z M97.285546875,306 L97.285546875,306 L97.285546875,309 L96.285546875,309 L96.285546875,306 Z M97.285546875,314 L97.285546875,314 L97.285546875,317 L96.285546875,317 L96.285546875,314 Z M97.285546875,322 L97.285546875,322 L97.285546875,325 L96.285546875,325 L96.285546875,322 Z M97.285546875,330 L97.285546875,330 L97.285546875,333 L96.285546875,333 L96.285546875,330 Z M97.285546875,338 L97.285546875,338 L97.285546875,341 L96.285546875,341 L96.285546875,338 Z M97.285546875,346 L97.285546875,346 L97.285546875,349 L96.285546875,349 L96.285546875,346 Z M97.285546875,354 L97.285546875,354 L97.285546875,357 L96.285546875,357 L96.285546875,354 Z M97.285546875,362 L97.285546875,362 L97.285546875,365 L96.285546875,365 L96.285546875,362 Z M97.285546875,10 L97.285546875,10 L97.285546875,13 L96.285546875,13 L96.285546875,10 Z" style="fill:none;stroke:rgb(210,210,210);stroke-miterlimit:10;stroke-linejoin:bevel;stroke-dasharray:3,5;"/>
    <path d="M201.162890625,18 L201.162890625,18 L201.162890625,21 L200.162890625,21 L200.162890625,18 Z M201.162890625,26 L201.162890625,26 L201.162890625,29 L200.162890625,29 L200.162890625,26 Z M201.162890625,34 L201.162890625,34 L201.162890625,37 L200.162890625,37 L200.162890625,34 Z M201.162890625,42 L201.162890625,42 L201.162890625,45 L200.162890625,45 L200.162890625,42 Z M201.162890625,50 L201.162890625,50 L201.162890625,53 L200.162890625,53 L200.162890625,50 Z M201.162890625,58 L201.162890625,58 L201.162890625,61 L200.162890625,61 L200.162890625,58 Z M201.162890625,66 L201.162890625,66 L201.162890625,69 L200.162890625,69 L200.162890625,66 Z M201.162890625,74 L201.162890625,74 L201.162890625,77 L200.162890625,77 L200.162890625,74 Z M201.162890625,82 L201.162890625,82 L201.162890625,85 L200.162890625,85 L200.162890625,82 Z M201.162890625,90 L201.162890625,90 L201.162890625,93 L200.162890625,93 L200.162890625,90 Z M201.162890625,98 L201.162890625,98 L201.162890625,101 L200.162890625,101 L200.162890625,98 Z M201.162890625,106 L201.162890625,106 L201.162890625,109 L200.162890625,109 L200.162890625,106 Z M201.162890625,114 L201.162890625,114 L201.162890625,117 L200.162890625,117 L200.162890625,114 Z M201.162890625,122 L201.162890625,122 L201.162890625,125 L200.162890625,125 L200.162890625,122 Z M201.162890625,130 L201.162890625,130 L201.162890625,133 L200.162890625,133 L200.162890625,130 Z M201.162890625,138 L201.162890625,138 L201.162890625,141 L200.162890625,141 L200.162890625,138 Z M201.162890625,146 L201.162890625,146 L201.162890625,149 L200.162890625,149 L200.162890625,146 Z M201.162890625,154 L201.162890625,154 L201.162890625,157 L200.162890625,157 L200.162890625,154 Z M201.162890625,162 L201.162890625,162 L201.162890625,165 L200.162890625,165 L200.162890625,162 Z M201.162890625,170 L201.162890625,170 L201.162890625,173 L200.162890625,173 L200.162890625,170 Z M201.162890625,178 L201.162890625,178 L201.162890625,181 L200.162890625,181 L200.162890625,178 Z M201.162890625,186 L201.162890625,186 L201.162890625,189 L200.162890625,189 L200.162890625,186 Z M201.162890625,194 L201.162890625,194 L201.162890625,197 L200.162890625,197 L200.162890625,194 Z M201.162890625,202 L201.162890625,202 L201.162890625,205 L200.162890625,205 L200.162890625,202 Z M201.162890625,210 L201.162890625,210 L201.162890625,213 L200.162890625,213 L200.162890625,210 Z M201.162890625,218 L201.162890625,218 L201.162890625,221 L200.162890625,221 L200.162890625,218 Z M201.162890625,226 L201.162890625,226 L201.162890625,229 L200.162890625,229 L200.162890625,226 Z M201.162890625,234 L201.162890625,234 L201.162890625,237 L200.162890625,237 L200.162890625,234 Z M201.162890625,242 L201.162890625,242 L201.162890625,245 L200.162890625,245 L200.162890625,242 Z M201.162890625,250 L201.162890625,250 L201.162890625,253 L200.162890625,253 L200.162890625,250 Z M201.162890625,258 L201.162890625,258 L201.162890625,261 L200.162890625,261 L200.162890625,258 Z M201.162890625,266 L201.162890625,266 L201.162890625,269 L200.162890625,269 L200.162890625,266 Z M201.162890625,274 L201.162890625,274 L201.162890625,277 L200.162890625,277 L200.162890625,274 Z M201.162890625,282 L201.162890625,282 L201.162890625,285 L200.162890625,285 L200.162890625,282 Z M201.162890625,290 L201.162890625,290 L201.162890625,293 L200.162890625,293 L200.162890625,290 Z M201.162890625,298 L201.162890625,298 L201.162890625,301 L200.162890625,301 L200.162890625,298 Z M201.162890625,306 L201.162890625,306 L201.162890625,309 L200.162890625,309 L200.162890625,306 Z M201.162890625,314 L201.162890625,314 L201.162890625,317 L200.162890625,317 L200.162890625,314 Z M201.162890625,322 L201.162890625,322 L201.162890625,325 L200.162890625,325 L200.162890625,322 Z M201.162890625,330 L201.162890625,330 L201.162890625,333 L200.162890625,333 L200.162890625,330 Z M201.162890625,338 L201.162890625,338 L201.162890625,341 L200.162890625,341 L200.162890625,338 Z M201.162890625,346 L201.162890625,346 L201.162890625,349 L200.162890625,349 L200.162890625,346 Z M201.162890625,354 L201.162890625,354 L201.162890625,357 L200.162890625,357 L200.162890625,354 Z M201.162890625,362 L201.162890625,362 L201.162890625,365 L200.162890625,365 L200.162890625,362 Z M201.162890625,10 L201.162890625,10 L201.162890625,13 L200.162890625,13 L200.162890625,10 Z" style="fill:none;stroke:rgb(210,210,210);stroke-miterlimit:10;stroke-linejoin:bevel;stroke-dasharray:3,5;"/>
    <path d="M305.040234375,18 L305.040234375,18 L305.040234375,21 L304.040234375,21 L304.040234375,18 Z M305.040234375,26 L305.040234375,26 L305.040234375,29 L304.040234375,29 L304.040234375,26 Z M305.040234375,34 L305.040234375,34 L305.040234375,37 L304.040234375,37 L304.040234375,34 Z M305.040234375,42 L305.040234375,42 L305.040234375,45 L304.040234375,45 L304.040234375,42 Z M305.040234375,50 L305.040234375,50 L305.040234375,53 L304.040234375,53 L304.040234375,50 Z M305.040234375,58 L305.040234375,58 L305.040234375,61 L304.040234375,61 L304.040234375,58 Z M305.040234375,66 L305.040234375,66 L305.040234375,69 L304.040234375,69 L304.040234375,66 Z M305.040234375,74 L305.040234375,74 L305.040234375,77 L304.040234375,77 L304.040234375,74 Z M305.040234375,82 L305.040234375,82 L305.040234375,85 L304.040234375,85 L304.040234375,82 Z M305.040234375,90 L305.040234375,90 L305.040234375,93 L304.040234375,93 L304.040234375,90 Z M305.040234375,98 L305.040234375,98 L305.040234375,101 L304.040234375,101 L304.040234375,98 Z M305.040234375,106 L305.040234375,106 L305.040234375,109 L304.040234375,109 L304.040234375,106 Z M305.040234375,114 L305.040234375,114 L305.040234375,117 L304.040234375,117 L304.040234375,114 Z M305.040234375,122 L305.040234375,122 L305.040234375,125 L304.040234375,125 L304.040234375,122 Z M305.040234375,130 L305.040234375,130 L305.040234375,133 L304.040234375,133 L304.040234375,130 Z M305.040234375,138 L305.040234375,138 L305.040234375,141 L304.040234375,141 L304.040234375,138 Z M305.040234375,146 L305.040234375,146 L305.040234375,149 L304.040234375,149 L304.040234375,146 Z M305.040234375,154 L305.040234375,154 L305.040234375,157 L304.040234375,157 L304.040234375,154 Z M305.040234375,162 L305.040234375,162 L305.040234375,165 L304.040234375,165 L304.040234375,162 Z M305.040234375,170 L305.040234375,170 L305.040234375,173 L304.040234375,173 L304.040234375,170 Z M305.040234375,178 L305.040234375,178 L305.040234375,181 L304.040234375,181 L304.040234375,178 Z M305.040234375,186 L305.040234375,186 L305.040234375,189 L304.040234375,189 L304.040234375,186 Z M305.040234375,194 L305.040234375,194 L305.040234375,197 L304.040234375,197 L304.040234375,194 Z M305.040234375,202 L305.040234375,202 L305.040234375,205 L304.040234375,205 L304.040234375,202 Z M305.040234375,210 L305.040234375,210 L305.040234375,213 L304.040234375,213 L304.040234375,210 Z M305.040234375,218 L305.040234375,218 L305.040234375,221 L304.040234375,221 L304.040234375,218 Z M305.040234375,226 L305.040234375,226 L305.040234375,229 L304.040234375,229 L304.040234375,226 Z M305.040234375,234 L305.040234375,234 L305.040234375,237 L304.040234375,237 L304.040234375,234 Z M305.040234375,242 L305.040234375,242 L305.040234375,245 L304.040234375,245 L304.040234375,242 Z M305.040234375,250 L305.040234375,250 L305.040234375,253 L304.040234375,253 L304.040234375,250 Z M305.040234375,258 L305.040234375,258 L305.040234375,261 L304.040234375,261 L304.040234375,258 Z M305.040234375,266 L305.040234375,266 L305.040234375,269 L304.040234375,269 L304.040234375,266 Z M305.040234375,274 L305.040234375,274 L305.040234375,277 L304.040234375,277 L304.040234375,274 Z M305.040234375,282 L305.040234375,282 L305.040234375,285 L304.040234375,285 L304.040234375,282 Z M305.040234375,290 L305.040234375,290 L305.040234375,293 L304.040234375,293 L304.040234375,290 Z M305.040234375,298 L305.040234375,298 L305.040234375,301 L304.040234375,301 L304.040234375,298 Z M305.040234375,306 L305.040234375,306 L305.040234375,309 L304.040234375,309 L304.040234375,306 Z M305.040234375,314 L305.040234375,314 L305.040234375,317 L304.040234375,317 L304.040234375,314 Z M305.040234375,322 L305.040234375,322 L305.040234375,325 L304.040234375,325 L304.040234375,322 Z M305.040234375,330 L305.040234375,330 L305.040234375,333 L304.040234375,333 L304.040234375,330 Z M305.040234375,338 L305.040234375,338 L305.040234375,341 L304.040234375,341 L304.040234375,338 Z M305.040234375,346 L305.040234375,346 L305.040234375,349 L304.040234375,349 L304.040234375,346 Z M305.040234375,354 L305.040234375,354 L305.040234375,357 L304.040234375,357 L304.040234375,354 Z M305.040234375,362 L305.040234375,362 L305.040234375,365 L304.040234375,365 L304.040234375,362 Z M305.040234375,10 L305.040234375,10 L305.040234375,13 L304.040234375,13 L304.040234375,10 Z" style="fill:none;stroke:rgb(210,210,210);stroke-miterlimit:10;stroke-linejoin:bevel;stroke-dasharray:3,5;"/>
    <path d="M408.917578125,18 L408.917578125,18 L408.917578125,21 L407.917578125,21 L407.917578125,18 Z M408.917578125,26 L408.917578125,26 L408.917578125,29 L407.917578125,29 L407.917578125,26 Z M408.917578125,34 L408.917578125,34 L408.917578125,37 L407.917578125,37 L407.917578125,34 Z M408.917578125,42 L408.917578125,42 L408.917578125,45 L407.917578125,45 L407.917578125,42 Z M408.917578125,50 L408.917578125,50 L408.917578125,53 L407.917578125,53 L407.917578125,50 Z M408.917578125,58 L408.917578125,58 L408.917578125,61 L407.917578125,61 L407.917578125,58 Z M408.917578125,66 L408.917578125,66 L408.917578125,69 L407.917578125,69 L407.917578125,66 Z M408.917578125,74 L408.917578125,74 L408.917578125,77 L407.917578125,77 L407.917578125,74 Z M408.917578125,82 L408.917578125,82 L408.917578125,85 L407.917578125,85 L407.917578125,82 Z M408.917578125,90 L408.917578125,90 L408.917578125,93 L407.917578125,93 L407.917578125,90 Z M408.917578125,98 L408.917578125,98 L408.917578125,101 L407.917578125,101 L407.917578125,98 Z M408.917578125,106 L408.917578125,106 L408.917578125,109 L407.917578125,109 L407.917578125,106 Z M408.917578125,114 L408.917578125,114 L408.917578125,117 L407.917578125,117 L407.917578125,114 Z M408.917578125,122 L408.917578125,122 L408.917578125,125 L407.917578125,125 L407.917578125,122 Z M408.917578125,130 L408.917578125,130 L408.917578125,133 L407.917578125,133 L407.917578125,130 Z M408.917578125,138 L408.917578125,138 L408.917578125,141 L407.917578125,141 L407.917578125,138 Z M408.917578125,146 L408.917578125,146 L408.917578125,149 L407.917578125,149 L407.917578125,146 Z M408.917578125,154 L408.917578125,154 L408.917578125,157 L407.917578125,157 L407.917578125,154 Z M408.917578125,162 L408.917578125,162 L408.917578125,165 L407.917578125,165 L407.917578125,162 Z M408.917578125,170 L408.917578125,170 L408.917578125,173 L407.917578125,173 L407.917578125,170 Z M408.917578125,178 L408.917578125,178 L408.917578125,181 L407.917578125,181 L407.917578125,178 Z M408.917578125,186 L408.917578125,186 L408.917578125,189 L407.917578125,189 L407.917578125,186 Z M408.917578125,194 L408.917578125,194 L408.917578125,197 L407.917578125,197 L407.917578125,194 Z M408.917578125,202 L408.917578125,202 L408.917578125,205 L407.917578125,205 L407.917578125,202 Z M408.917578125,210 L408.917578125,210 L408.917578125,213 L407.917578125,213 L407.917578125,210 Z M408.917578125,218 L408.917578125,218 L408.917578125,221 L407.917578125,221 L407.917578125,218 Z M408.917578125,226 L408.917578125,226 L408.917578125,229 L407.917578125,229 L407.917578125,226 Z M408.917578125,234 L408.917578125,234 L408.917578125,237 L407.917578125,237 L407.917578125,234 Z M408.917578125,242 L408.917578125,242 L408.917578125,245 L407.917578125,245 L407.917578125,242 Z M408.917578125,250 L408.917578125,250 L408.917578125,253 L407.917578125,253 L407.917578125,250 Z M408.917578125,258 L408.917578125,258 L408.917578125,261 L407.917578125,261 L407.917578125,258 Z M408.917578125,266 L408.917578125,266 L408.917578125,269 L407.917578125,269 L407.917578125,266 Z M408.917578125,274 L408.917578125,274 L408.917578125,277 L407.917578125,277 L407.917578125,274 Z M408.917578125,282 L408.917578125,282 L408.917578125,285 L407.917578125,285 L407.917578125,282 Z M408.917578125,290 L408.917578125,290 L408.917578125,293 L407.917578125,293 L407.917578125,290 Z M408.917578125,298 L408.917578125,298 L408.917578125,301 L407.917578125,301 L407.917578125,298 Z M408.917578125,306 L408.917578125,306 L408.917578125,309 L407.917578125,309 L407.917578125,306 Z M408.917578125,314 L408.917578125,314 L408.917578125,317 L407.917578125,317 L407.917578125,314 Z M408.917578125,322 L408.917578125,322 L408.917578125,325 L407.917578125,325 L407.917578125,322 Z M408.917578125,330 L408.917578125,330 L408.917578125,333 L407.917578125,333 L407.917578125,330 Z M408.917578125,338 L408.917578125,338 L408.917578125,341 L407.917578125,341 L407.917578125,338 Z M408.917578125,346 L408.917578125,346 L408.917578125,349 L407.917578125,349 L407.917578125,346 Z M408.917578125,354 L408.917578125,354 L408.917578125,357 L407.917578125,357 L407.917578125,354 Z M408.917578125,362 L408.917578125,362 L408.917578125,365 L407.917578125,365 L407.917578125,362 Z M408.917578125,10 L408.917578125,10 L408.917578125,13 L407.917578125,13 L407.917578125,10 Z" style="fill:none;stroke:rgb(210,210,210);stroke-miterlimit:10;stroke-linejoin:bevel;stroke-dasharray:3,5;"/>
    <rect height="360" style="fill:none;stroke:rgb(130,130,130);stroke-miterlimit:10;stroke-linejoin:bevel;stroke-dasharray:3,0;" width="451.640625" x="26.78125" y="10"/>
  </g>
  <g clip-path="url(#clip806228160)">
    <path d="M50.04074218749998,190 L143.5303515625,190 L143.5303515625,355.6 L50.04074218749998,355.6 Z" style="fill:rgb(0,55,255);fill-opacity:0.705882352941177;stroke:none;"/>
    <path d="M153.91808593749997,24.399999999999977 L247.40769531249998,24.399999999999977 L247.40769531249998,355.6 L153.91808593749997,355.6 Z" style="fill:rgb(0,55,255);fill-opacity:0.705882352941177;stroke:none;"/>
    <path d="M257.7954296875,190 L351.2850390625,190 L351.2850390625,355.6 L257.7954296875,355.6 Z" style="fill:rgb(0,55,255);fill-opacity:0.705882352941177;stroke:none;"/>
    <path d="M361.67277343750004,190 L455.1623828125,190 L455.1623828125,355.6 L361.67277343750004,355.6 Z" style="fill:rgb(0,55,255);fill-opacity:0.705882352941177;stroke:none;"/>
  </g>
  <g>
    <rect height="40" style="fill:rgb(255,255,255);stroke:none;" width="101.578125" x="492.421875" y="170"/>
    <rect height="40" style="fill:none;stroke:rgb(130,130,130);stroke-miterlimit:10;stroke-linejoin:bevel;stroke-dasharray:3,0;" width="101.578125" x="492.421875" y="170"/>
    <rect height="20" style="fill:rgb(0,55,255);fill-opacity:0.705882352941177;stroke:none;" width="20" x="502.421875" y="180"/>
  </g>
  <g transform="translate(532.421875 195.09375)">
    <path d="M0.875,-0 L0.875,-7.875 L1.921875,-7.875 L1.921875,-4.640625 L6.015625,-4.640625 L6.015625,-7.875 L7.0625,-7.875 L7.0625,-0 L6.015625,-0 L6.015625,-3.71875 L1.921875,-3.71875 L1.921875,-0 L0.875,-0 Z M8.67822265625,-6.765625 L8.67822265625,-7.875 L9.64697265625,-7.875 L9.64697265625,-6.765625 L8.67822265625,-6.765625 Z M8.67822265625,0 L8.67822265625,-5.703125 L9.64697265625,-5.703125 L9.64697265625,0 L8.67822265625,0 Z M10.7314453125,-1.703125 L11.6845703125,-1.859375 Q11.7626953125,-1.28125 12.1220703125,-0.96875 Q12.4970703125,-0.671875 13.1533203125,-0.671875 Q13.8251953125,-0.671875 14.1376953125,-0.9375 Q14.4658203125,-1.203125 14.4658203125,-1.578125 Q14.4658203125,-1.90625 14.1845703125,-2.09375 Q13.9814453125,-2.21875 13.2001953125,-2.421875 Q12.1376953125,-2.6875 11.7158203125,-2.875 Q11.3095703125,-3.078125 11.0908203125,-3.421875 Q10.8876953125,-3.765625 10.8876953125,-4.1875 Q10.8876953125,-4.578125 11.0595703125,-4.890625 Q11.2314453125,-5.21875 11.5439453125,-5.4375 Q11.7626953125,-5.609375 12.1533203125,-5.71875 Q12.5439453125,-5.828125 12.9814453125,-5.828125 Q13.6533203125,-5.828125 14.1533203125,-5.640625 Q14.6689453125,-5.453125 14.9033203125,-5.109375 Q15.1533203125,-4.78125 15.2470703125,-4.234375 L14.3095703125,-4.109375 Q14.2314453125,-4.546875 13.9189453125,-4.78125 Q13.6220703125,-5.03125 13.0595703125,-5.03125 Q12.3876953125,-5.03125 12.1064453125,-4.8125 Q11.8251953125,-4.59375 11.8251953125,-4.296875 Q11.8251953125,-4.109375 11.9345703125,-3.96875 Q12.0595703125,-3.8125 12.3095703125,-3.703125 Q12.4501953125,-3.65625 13.1689453125,-3.453125 Q14.1845703125,-3.1875 14.5908203125,-3.015625 Q14.9970703125,-2.84375 15.2314453125,-2.5 Q15.4658203125,-2.171875 15.4658203125,-1.671875 Q15.4658203125,-1.1875 15.1845703125,-0.765625 Q14.9033203125,-0.34375 14.3720703125,-0.109375 Q13.8408203125,0.125 13.1689453125,0.125 Q12.0595703125,0.125 11.4658203125,-0.328125 Q10.8876953125,-0.796875 10.7314453125,-1.703125 Z M18.7314453125,-0.859375 L18.8564453125,-0.015625 Q18.4501953125,0.078125 18.1376953125,0.078125 Q17.6064453125,0.078125 17.3095703125,-0.09375 Q17.0283203125,-0.265625 16.9033203125,-0.53125 Q16.7939453125,-0.796875 16.7939453125,-1.671875 L16.7939453125,-4.953125 L16.0751953125,-4.953125 L16.0751953125,-5.703125 L16.7939453125,-5.703125 L16.7939453125,-7.109375 L17.7470703125,-7.703125 L17.7470703125,-5.703125 L18.7314453125,-5.703125 L18.7314453125,-4.953125 L17.7470703125,-4.953125 L17.7470703125,-1.609375 Q17.7470703125,-1.203125 17.7939453125,-1.078125 Q17.8564453125,-0.96875 17.9658203125,-0.890625 Q18.0908203125,-0.828125 18.2939453125,-0.828125 Q18.4658203125,-0.828125 18.7314453125,-0.859375 Z M19.30322265625,-2.859375 Q19.30322265625,-4.4375 20.19384765625,-5.203125 Q20.92822265625,-5.828125 21.99072265625,-5.828125 Q23.16259765625,-5.828125 23.89697265625,-5.0625 Q24.64697265625,-4.296875 24.64697265625,-2.9375 Q24.64697265625,-1.828125 24.31884765625,-1.1875 Q23.99072265625,-0.5625 23.35009765625,-0.21875 Q22.72509765625,0.125 21.99072265625,0.125 Q20.78759765625,0.125 20.03759765625,-0.640625 Q19.30322265625,-1.40625 19.30322265625,-2.859375 Z M20.30322265625,-2.859375 Q20.30322265625,-1.75 20.77197265625,-1.203125 Q21.25634765625,-0.671875 21.99072265625,-0.671875 Q22.70947265625,-0.671875 23.17822265625,-1.21875 Q23.66259765625,-1.765625 23.66259765625,-2.890625 Q23.66259765625,-3.9375 23.17822265625,-4.484375 Q22.69384765625,-5.03125 21.99072265625,-5.03125 Q21.25634765625,-5.03125 20.77197265625,-4.484375 Q20.30322265625,-3.953125 20.30322265625,-2.859375 Z M25.6083984375,0.46875 L26.5458984375,0.609375 Q26.6083984375,1.046875 26.8740234375,1.25 Q27.2333984375,1.515625 27.8583984375,1.515625 Q28.5302734375,1.515625 28.8896484375,1.25 Q29.2646484375,0.984375 29.3896484375,0.5 Q29.4677734375,0.203125 29.4677734375,-0.75 Q28.8271484375,0 27.8740234375,0 Q26.7021484375,0 26.0615234375,-0.84375 Q25.4208984375,-1.703125 25.4208984375,-2.890625 Q25.4208984375,-3.703125 25.7177734375,-4.390625 Q26.0146484375,-5.078125 26.5615234375,-5.453125 Q27.1240234375,-5.828125 27.8896484375,-5.828125 Q28.8896484375,-5.828125 29.5458984375,-5.015625 L29.5458984375,-5.703125 L30.4365234375,-5.703125 L30.4365234375,-0.78125 Q30.4365234375,0.5625 30.1708984375,1.109375 Q29.9052734375,1.671875 29.3115234375,1.984375 Q28.7177734375,2.3125 27.8583984375,2.3125 Q26.8427734375,2.3125 26.2177734375,1.84375 Q25.5927734375,1.390625 25.6083984375,0.46875 Z M26.4052734375,-2.953125 Q26.4052734375,-1.828125 26.8427734375,-1.3125 Q27.2958984375,-0.796875 27.9677734375,-0.796875 Q28.6396484375,-0.796875 29.0927734375,-1.3125 Q29.5458984375,-1.828125 29.5458984375,-2.921875 Q29.5458984375,-3.96875 29.0771484375,-4.5 Q28.6083984375,-5.03125 27.9521484375,-5.03125 Q27.3115234375,-5.03125 26.8583984375,-4.5 Q26.4052734375,-3.984375 26.4052734375,-2.953125 Z M31.89794921875,0 L31.89794921875,-5.703125 L32.75732421875,-5.703125 L32.75732421875,-4.84375 Q33.10107421875,-5.453125 33.38232421875,-5.640625 Q33.66357421875,-5.828125 33.99169921875,-5.828125 Q34.49169921875,-5.828125 34.99169921875,-5.515625 L34.66357421875,-4.625 Q34.30419921875,-4.828125 33.94482421875,-4.828125 Q33.63232421875,-4.828125 33.38232421875,-4.640625 Q33.13232421875,-4.453125 33.02294921875,-4.109375 Q32.86669921875,-3.59375 32.86669921875,-2.984375 L32.86669921875,0 L31.89794921875,0 Z M39.29541015625,-0.703125 Q38.74853515625,-0.25 38.24853515625,-0.0625 Q37.76416015625,0.125 37.18603515625,0.125 Q36.24853515625,0.125 35.73291015625,-0.328125 Q35.23291015625,-0.796875 35.23291015625,-1.5 Q35.23291015625,-1.921875 35.42041015625,-2.265625 Q35.62353515625,-2.609375 35.92041015625,-2.8125 Q36.23291015625,-3.03125 36.62353515625,-3.140625 Q36.90478515625,-3.21875 37.48291015625,-3.28125 Q38.65478515625,-3.421875 39.20166015625,-3.625 Q39.21728515625,-3.8125 39.21728515625,-3.875 Q39.21728515625,-4.46875 38.93603515625,-4.703125 Q38.57666015625,-5.03125 37.84228515625,-5.03125 Q37.15478515625,-5.03125 36.82666015625,-4.796875 Q36.51416015625,-4.5625 36.35791015625,-3.953125 L35.40478515625,-4.078125 Q35.52978515625,-4.6875 35.82666015625,-5.0625 Q36.12353515625,-5.4375 36.68603515625,-5.625 Q37.24853515625,-5.828125 37.98291015625,-5.828125 Q38.71728515625,-5.828125 39.17041015625,-5.65625 Q39.62353515625,-5.484375 39.82666015625,-5.21875 Q40.04541015625,-4.96875 40.13916015625,-4.578125 Q40.18603515625,-4.328125 40.18603515625,-3.671875 L40.18603515625,-2.390625 Q40.18603515625,-1.046875 40.24853515625,-0.6875 Q40.31103515625,-0.328125 40.49853515625,0 L39.48291015625,0 Q39.32666015625,-0.296875 39.29541015625,-0.703125 Z M39.20166015625,-2.859375 Q38.68603515625,-2.640625 37.62353515625,-2.5 Q37.02978515625,-2.40625 36.77978515625,-2.296875 Q36.54541015625,-2.203125 36.40478515625,-1.984375 Q36.26416015625,-1.78125 36.26416015625,-1.53125 Q36.26416015625,-1.140625 36.56103515625,-0.875 Q36.85791015625,-0.625 37.42041015625,-0.625 Q37.98291015625,-0.625 38.40478515625,-0.875 Q38.84228515625,-1.125 39.06103515625,-1.546875 Q39.20166015625,-1.875 39.20166015625,-2.515625 L39.20166015625,-2.859375 Z M41.6787109375,0 L41.6787109375,-5.703125 L42.5537109375,-5.703125 L42.5537109375,-4.90625 Q42.8193359375,-5.328125 43.2568359375,-5.578125 Q43.7099609375,-5.828125 44.2724609375,-5.828125 Q44.9130859375,-5.828125 45.3193359375,-5.5625 Q45.7255859375,-5.3125 45.8974609375,-4.828125 Q46.5693359375,-5.828125 47.6474609375,-5.828125 Q48.5068359375,-5.828125 48.9599609375,-5.359375 Q49.4130859375,-4.890625 49.4130859375,-3.921875 L49.4130859375,0 L48.4599609375,0 L48.4599609375,-3.59375 Q48.4599609375,-4.171875 48.3662109375,-4.421875 Q48.2724609375,-4.6875 48.0224609375,-4.84375 Q47.7724609375,-5 47.4443359375,-5 Q46.8349609375,-5 46.4287109375,-4.59375 Q46.0380859375,-4.1875 46.0380859375,-3.3125 L46.0380859375,0 L45.0693359375,0 L45.0693359375,-3.703125 Q45.0693359375,-4.34375 44.8349609375,-4.671875 Q44.6005859375,-5 44.0693359375,-5 Q43.6630859375,-5 43.3037109375,-4.78125 Q42.9599609375,-4.5625 42.8037109375,-4.140625 Q42.6474609375,-3.734375 42.6474609375,-2.953125 L42.6474609375,0 L41.6787109375,0 Z" style="fill:rgb(0,0,0);stroke:none;"/>
  </g>
</svg>
