<?xml version="1.0" encoding="UTF-8" standalone="no"?>
<!DOCTYPE svg PUBLIC "-//W3C//DTD SVG 1.1//EN" "http://www.w3.org/Graphics/SVG/1.1/DTD/svg11.dtd">
<svg xmlns="http://www.w3.org/2000/svg" xmlns:xlink="http://www.w3.org/1999/xlink" height="400px" version="1.1" viewBox="0 0 600 400" width="600px" x="0px" y="0px">
  <defs>
    <clipPath id="clip800154048">
      <rect height="341.40625" width="433.046875" x="45.375" y="10"/>
    </clipPath>
  </defs>
  <rect height="400" style="fill:rgb(210,210,210);stroke:none;" width="600" x="0" y="0"/>
  <g transform="translate(18 184)">
    <path d="M-0,-3.125 L-3.609375,-3.125 L-8.59375,0.015625 L-8.59375,-2.015625 L-5.1875,-4.03125 L-8.59375,-6.015625 L-8.59375,-8.015625 L-3.609375,-4.859375 L-0.0,-4.859375 L-0.0,-3.125 Z" style="fill:rgb(0,0,0);stroke:none;"/>
  </g>
  <g transform="translate(28 28.15625)">
    <path d="M6.078125,-1.53125 L6.078125,-0 L0.296875,-0 Q0.390625,-0.875 0.859375,-1.640625 Q1.328125,-2.421875 2.71875,-3.703125 Q3.828125,-4.734375 4.078125,-5.109375 Q4.421875,-5.625 4.421875,-6.125 Q4.421875,-6.671875 4.125,-6.96875 Q3.828125,-7.265625 3.3125,-7.265625 Q2.796875,-7.265625 2.484375,-6.953125 Q2.1875,-6.640625 2.140625,-5.921875 L0.5,-6.078125 Q0.640625,-7.4375 1.40625,-8.03125 Q2.1875,-8.625 3.34375,-8.625 Q4.625,-8.625 5.34375,-7.9375 Q6.078125,-7.25 6.078125,-6.234375 Q6.078125,-5.65625 5.859375,-5.125 Q5.65625,-4.609375 5.203125,-4.03125 Q4.90625,-3.65625 4.125,-2.9375 Q3.34375,-2.21875 3.140625,-1.984375 Q2.9375,-1.75 2.796875,-1.53125 L6.078125,-1.53125 Z" style="fill:rgb(0,0,0);stroke:none;"/>
  </g>
  <g transform="translate(28 185.203125)">
    <path d="M4.71875,-0 L3.078125,-0 L3.078125,-6.203125 Q2.171875,-5.359375 0.953125,-4.953125 L0.953125,-6.453125 Q1.59375,-6.65625 2.34375,-7.25 Q3.109375,-7.84375 3.390625,-8.625 L4.71875,-8.625 L4.71875,-0 Z" style="fill:rgb(0,0,0);stroke:none;"/>
  </g>
  <g transform="translate(28 342.75)">
    <path d="M3.296875,-8.625 Q4.546875,-8.625 5.25,-7.734375 Q6.078125,-6.6875 6.078125,-4.234375 Q6.078125,-1.796875 5.234375,-0.734375 Q4.546875,0.140625 3.296875,0.140625 Q2.046875,0.140625 1.265625,-0.8125 Q0.5,-1.78125 0.5,-4.25 Q0.5,-6.6875 1.34375,-7.75 Q2.046875,-8.625 3.296875,-8.625 Z M3.296875,-7.265625 Q3,-7.265625 2.765625,-7.0625 Q2.53125,-6.875 2.390625,-6.390625 Q2.234375,-5.75 2.234375,-4.234375 Q2.234375,-2.71875 2.375,-2.15625 Q2.53125,-1.59375 2.765625,-1.40625 Q3,-1.21875 3.296875,-1.21875 Q3.59375,-1.21875 3.828125,-1.40625 Q4.0625,-1.59375 4.1875,-2.09375 Q4.359375,-2.71875 4.359375,-4.234375 Q4.359375,-5.75 4.203125,-6.3125 Q4.0625,-6.875 3.828125,-7.0625 Q3.59375,-7.265625 3.296875,-7.265625 Z" style="fill:rgb(0,0,0);stroke:none;"/>
  </g>
  <g>
    <line style="fill:none;stroke:rgb(130,130,130);stroke-miterlimit:10;stroke-linecap:square;" x1="37.78125" x2="40.78125" y1="337.75" y2="337.75"/>
    <line style="fill:none;stroke:rgb(130,130,130);stroke-miterlimit:10;stroke-linecap:square;" x1="37.78125" x2="40.78125" y1="180.703125" y2="180.703125"/>
    <line style="fill:none;stroke:rgb(130,130,130);stroke-miterlimit:10;stroke-linecap:square;" x1="37.78125" x2="40.78125" y1="23.65625" y2="23.65625"/>
    <line style="fill:none;stroke:rgb(130,130,130);stroke-miterlimit:10;stroke-linecap:square;" x1="40.78125" x2="40.78125" y1="10" y2="351.40625"/>
  </g>
  <g transform="translate(257.90625 390)">
    <path d="M0,-0 L2.9375,-4.484375 L0.28125,-8.59375 L2.296875,-8.59375 L4.03125,-5.828125 L5.71875,-8.59375 L7.71875,-8.59375 L5.046875,-4.421875 L7.984375,-0 L5.890625,-0 L3.984375,-2.96875 L2.078125,-0 L0.0,-0 Z" style="fill:rgb(0,0,0);stroke:none;"/>
  </g>
  <g transform="translate(110.61445312499998 371.40625)">
    <path d="M4.71875,-0 L3.078125,-0 L3.078125,-6.203125 Q2.171875,-5.359375 0.953125,-4.953125 L0.953125,-6.453125 Q1.59375,-6.65625 2.34375,-7.25 Q3.109375,-7.84375 3.390625,-8.625 L4.71875,-8.625 L4.71875,-0 Z" style="fill:rgb(0,0,0);stroke:none;"/>
  </g>
  <g transform="translate(209.207421875 371.40625)">
    <path d="M6.078125,-1.53125 L6.078125,-0 L0.296875,-0 Q0.390625,-0.875 0.859375,-1.640625 Q1.328125,-2.421875 2.71875,-3.703125 Q3.828125,-4.734375 4.078125,-5.109375 Q4.421875,-5.625 4.421875,-6.125 Q4.421875,-6.671875 4.125,-6.96875 Q3.828125,-7.265625 3.3125,-7.265625 Q2.796875,-7.265625 2.484375,-6.953125 Q2.1875,-6.640625 2.140625,-5.921875 L0.5,-6.078125 Q0.640625,-7.4375 1.40625,-8.03125 Q2.1875,-8.625 3.34375,-8.625 Q4.625,-8.625 5.34375,-7.9375 Q6.078125,-7.25 6.078125,-6.234375 Q6.078125,-5.65625 5.859375,-5.125 Q5.65625,-4.609375 5.203125,-4.03125 Q4.90625,-3.65625 4.125,-2.9375 Q3.34375,-2.21875 3.140625,-1.984375 Q2.9375,-1.75 2.796875,-1.53125 L6.078125,-1.53125 Z" style="fill:rgb(0,0,0);stroke:none;"/>
  </g>
  <g transform="translate(308.847265625 371.265625)">
    <path d="M0.453125,-2.28125 L2.046875,-2.46875 Q2.125,-1.859375 2.453125,-1.53125 Q2.796875,-1.21875 3.265625,-1.21875 Q3.78125,-1.21875 4.125,-1.609375 Q4.46875,-2 4.46875,-2.65625 Q4.46875,-3.265625 4.125,-3.625 Q3.796875,-4 3.328125,-4 Q3,-4 2.5625,-3.875 L2.75,-5.21875 Q3.421875,-5.203125 3.765625,-5.5 Q4.125,-5.8125 4.125,-6.328125 Q4.125,-6.75 3.859375,-7 Q3.609375,-7.265625 3.171875,-7.265625 Q2.75,-7.265625 2.453125,-6.96875 Q2.15625,-6.6875 2.09375,-6.125 L0.578125,-6.375 Q0.734375,-7.15625 1.046875,-7.625 Q1.375,-8.09375 1.9375,-8.359375 Q2.515625,-8.625 3.21875,-8.625 Q4.4375,-8.625 5.171875,-7.859375 Q5.765625,-7.21875 5.765625,-6.421875 Q5.765625,-5.296875 4.53125,-4.625 Q5.28125,-4.453125 5.71875,-3.90625 Q6.15625,-3.359375 6.15625,-2.578125 Q6.15625,-1.453125 5.328125,-0.65625 Q4.5,0.140625 3.28125,0.140625 Q2.109375,0.140625 1.34375,-0.53125 Q0.578125,-1.203125 0.453125,-2.28125 Z" style="fill:rgb(0,0,0);stroke:none;"/>
  </g>
  <g transform="translate(408.40898437500005 371.265625)">
    <path d="M0.53125,-2.203125 L2.171875,-2.375 Q2.25,-1.828125 2.59375,-1.5 Q2.9375,-1.171875 3.390625,-1.171875 Q3.90625,-1.171875 4.265625,-1.59375 Q4.625,-2.015625 4.625,-2.859375 Q4.625,-3.640625 4.265625,-4.03125 Q3.90625,-4.4375 3.34375,-4.4375 Q2.625,-4.4375 2.0625,-3.8125 L0.734375,-4 L1.578125,-8.46875 L5.9375,-8.46875 L5.9375,-6.9375 L2.828125,-6.9375 L2.5625,-5.46875 Q3.125,-5.75 3.6875,-5.75 Q4.78125,-5.75 5.546875,-4.953125 Q6.3125,-4.15625 6.3125,-2.890625 Q6.3125,-1.828125 5.703125,-0.984375 Q4.859375,0.140625 3.375,0.140625 Q2.1875,0.140625 1.4375,-0.484375 Q0.6875,-1.125 0.53125,-2.203125 Z" style="fill:rgb(0,0,0);stroke:none;"/>
  </g>
  <g>
    <line style="fill:none;stroke:rgb(130,130,130);stroke-miterlimit:10;stroke-linecap:square;" x1="112.49726562499998" x2="112.49726562499998" y1="358.640625" y2="355.640625"/>
    <line style="fill:none;stroke:rgb(130,130,130);stroke-miterlimit:10;stroke-linecap:square;" x1="212.098046875" x2="212.098046875" y1="358.640625" y2="355.640625"/>
    <line style="fill:none;stroke:rgb(130,130,130);stroke-miterlimit:10;stroke-linecap:square;" x1="311.698828125" x2="311.698828125" y1="358.640625" y2="355.640625"/>
    <line style="fill:none;stroke:rgb(130,130,130);stroke-miterlimit:10;stroke-linecap:square;" x1="411.29960937500005" x2="411.29960937500005" y1="358.640625" y2="355.640625"/>
    <line style="fill:none;stroke:rgb(130,130,130);stroke-miterlimit:10;stroke-linecap:square;" x1="45" x2="478" y1="355" y2="355"/>
    <rect height="341.40625" style="fill:rgb(255,255,255);stroke:none;" width="433.046875" x="45.375" y="10"/>
    <path d="M53.375,337.25 L53.375,337.25 L56.375,337.25 L56.375,338.25 L53.375,338.25 Z M61.375,337.25 L61.375,337.25 L64.375,337.25 L64.375,338.25 L61.375,338.25 Z M69.375,337.25 L69.375,337.25 L72.375,337.25 L72.375,338.25 L69.375,338.25 Z M77.375,337.25 L77.375,337.25 L80.375,337.25 L80.375,338.25 L77.375,338.25 Z M85.375,337.25 L85.375,337.25 L88.375,337.25 L88.375,338.25 L85.375,338.25 Z M93.375,337.25 L93.375,337.25 L96.375,337.25 L96.375,338.25 L93.375,338.25 Z M101.375,337.25 L101.375,337.25 L104.375,337.25 L104.375,338.25 L101.375,338.25 Z M109.375,337.25 L109.375,337.25 L112.375,337.25 L112.375,338.25 L109.375,338.25 Z M117.375,337.25 L117.375,337.25 L120.375,337.25 L120.375,338.25 L117.375,338.25 Z M125.375,337.25 L125.375,337.25 L128.375,337.25 L128.375,338.25 L125.375,338.25 Z M133.375,337.25 L133.375,337.25 L136.375,337.25 L136.375,338.25 L133.375,338.25 Z M141.375,337.25 L141.375,337.25 L144.375,337.25 L144.375,338.25 L141.375,338.25 Z M149.375,337.25 L149.375,337.25 L152.375,337.25 L152.375,338.25 L149.375,338.25 Z M157.375,337.25 L157.375,337.25 L160.375,337.25 L160.375,338.25 L157.375,338.25 Z M165.375,337.25 L165.375,337.25 L168.375,337.25 L168.375,338.25 L165.375,338.25 Z M173.375,337.25 L173.375,337.25 L176.375,337.25 L176.375,338.25 L173.375,338.25 Z M181.375,337.25 L181.375,337.25 L184.375,337.25 L184.375,338.25 L181.375,338.25 Z M189.375,337.25 L189.375,337.25 L192.375,337.25 L192.375,338.25 L189.375,338.25 Z M197.375,337.25 L197.375,337.25 L200.375,337.25 L200.375,338.25 L197.375,338.25 Z M205.375,337.25 L205.375,337.25 L208.375,337.25 L208.375,338.25 L205.375,338.25 Z M213.375,337.25 L213.375,337.25 L216.375,337.25 L216.375,338.25 L213.375,338.25 Z M221.375,337.25 L221.375,337.25 L224.375,337.25 L224.375,338.25 L221.375,338.25 Z M229.375,337.25 L229.375,337.25 L232.375,337.25 L232.375,338.25 L229.375,338.25 Z M237.375,337.25 L237.375,337.25 L240.375,337.25 L240.375,338.25 L237.375,338.25 Z M245.375,337.25 L245.375,337.25 L248.375,337.25 L248.375,338.25 L245.375,338.25 Z M253.375,337.25 L253.375,337.25 L256.375,337.25 L256.375,338.25 L253.375,338.25 Z M261.375,337.25 L261.375,337.25 L264.375,337.25 L264.375,338.25 L261.375,338.25 Z M269.375,337.25 L269.375,337.25 L272.375,337.25 L272.375,338.25 L269.375,338.25 Z M277.375,337.25 L277.375,337.25 L280.375,337.25 L280.375,338.25 L277.375,338.25 Z M285.375,337.25 L285.375,337.25 L288.375,337.25 L288.375,338.25 L285.375,338.25 Z M293.375,337.25 L293.375,337.25 L296.375,337.25 L296.375,338.25 L293.375,338.25 Z M301.375,337.25 L301.375,337.25 L304.375,337.25 L304.375,338.25 L301.375,338.25 Z M309.375,337.25 L309.375,337.25 L312.375,337.25 L312.375,338.25 L309.375,338.25 Z M317.375,337.25 L317.375,337.25 L320.375,337.25 L320.375,338.25 L317.375,338.25 Z M325.375,337.25 L325.375,337.25 L328.375,337.25 L328.375,338.25 L325.375,338.25 Z M333.375,337.25 L333.375,337.25 L336.375,337.25 L336.375,338.25 L333.375,338.25 Z M341.375,337.25 L341.375,337.25 L344.375,337.25 L344.375,338.25 L341.375,338.25 Z M349.375,337.25 L349.375,337.25 L352.375,337.25 L352.375,338.25 L349.375,338.25 Z M357.375,337.25 L357.375,337.25 L360.375,337.25 L360.375,338.25 L357.375,338.25 Z M365.375,337.25 L365.375,337.25 L368.375,337.25 L368.375,338.25 L365.375,338.25 Z M373.375,337.25 L373.375,337.25 L376.375,337.25 L376.375,338.25 L373.375,338.25 Z M381.375,337.25 L381.375,337.25 L384.375,337.25 L384.375,338.25 L381.375,338.25 Z M389.375,337.25 L389.375,337.25 L392.375,337.25 L392.375,338.25 L389.375,338.25 Z M397.375,337.25 L397.375,337.25 L400.375,337.25 L400.375,338.25 L397.375,338.25 Z M405.375,337.25 L405.375,337.25 L408.375,337.25 L408.375,338.25 L405.375,338.25 Z M413.375,337.25 L413.375,337.25 L416.375,337.25 L416.375,338.25 L413.375,338.25 Z M421.375,337.25 L421.375,337.25 L424.375,337.25 L424.375,338.25 L421.375,338.25 Z M429.375,337.25 L429.375,337.25 L432.375,337.25 L432.375,338.25 L429.375,338.25 Z M437.375,337.25 L437.375,337.25 L440.375,337.25 L440.375,338.25 L437.375,338.25 Z M445.375,337.25 L445.375,337.25 L448.375,337.25 L448.375,338.25 L445.375,338.25 Z M453.375,337.25 L453.375,337.25 L456.375,337.25 L456.375,338.25 L453.375,338.25 Z M461.375,337.25 L461.375,337.25 L464.375,337.25 L464.375,338.25 L461.375,338.25 Z M469.375,337.25 L469.375,337.25 L472.375,337.25 L472.375,338.25 L469.375,338.25 Z M477.375,337.25 L477.375,337.25 L478.421875,337.25 L478.421875,338.25 L477.375,338.25 Z M45.375,337.25 L45.375,337.25 L48.375,337.25 L48.375,338.25 L45.375,338.25 Z" style="fill:none;stroke:rgb(210,210,210);stroke-miterlimit:10;stroke-linejoin:bevel;stroke-dasharray:3,5;"/>
    <path d="M53.375,180.203125 L53.375,180.203125 L56.375,180.203125 L56.375,181.203125 L53.375,181.203125 Z M61.375,180.203125 L61.375,180.203125 L64.375,180.203125 L64.375,181.203125 L61.375,181.203125 Z M69.375,180.203125 L69.375,180.203125 L72.375,180.203125 L72.375,181.203125 L69.375,181.203125 Z M77.375,180.203125 L77.375,180.203125 L80.375,180.203125 L80.375,181.203125 L77.375,181.203125 Z M85.375,180.203125 L85.375,180.203125 L88.375,180.203125 L88.375,181.203125 L85.375,181.203125 Z M93.375,180.203125 L93.375,180.203125 L96.375,180.203125 L96.375,181.203125 L93.375,181.203125 Z M101.375,180.203125 L101.375,180.203125 L104.375,180.203125 L104.375,181.203125 L101.375,181.203125 Z M109.375,180.203125 L109.375,180.203125 L112.375,180.203125 L112.375,181.203125 L109.375,181.203125 Z M117.375,180.203125 L117.375,180.203125 L120.375,180.203125 L120.375,181.203125 L117.375,181.203125 Z M125.375,180.203125 L125.375,180.203125 L128.375,180.203125 L128.375,181.203125 L125.375,181.203125 Z M133.375,180.203125 L133.375,180.203125 L136.375,180.203125 L136.375,181.203125 L133.375,181.203125 Z M141.375,180.203125 L141.375,180.203125 L144.375,180.203125 L144.375,181.203125 L141.375,181.203125 Z M149.375,180.203125 L149.375,180.203125 L152.375,180.203125 L152.375,181.203125 L149.375,181.203125 Z M157.375,180.203125 L157.375,180.203125 L160.375,180.203125 L160.375,181.203125 L157.375,181.203125 Z M165.375,180.203125 L165.375,180.203125 L168.375,180.203125 L168.375,181.203125 L165.375,181.203125 Z M173.375,180.203125 L173.375,180.203125 L176.375,180.203125 L176.375,181.203125 L173.375,181.203125 Z M181.375,180.203125 L181.375,180.203125 L184.375,180.203125 L184.375,181.203125 L181.375,181.203125 Z M189.375,180.203125 L189.375,180.203125 L192.375,180.203125 L192.375,181.203125 L189.375,181.203125 Z M197.375,180.203125 L197.375,180.203125 L200.375,180.203125 L200.375,181.203125 L197.375,181.203125 Z M205.375,180.203125 L205.375,180.203125 L208.375,180.203125 L208.375,181.203125 L205.375,181.203125 Z M213.375,180.203125 L213.375,180.203125 L216.375,180.203125 L216.375,181.203125 L213.375,181.203125 Z M221.375,180.203125 L221.375,180.203125 L224.375,180.203125 L224.375,181.203125 L221.375,181.203125 Z M229.375,180.203125 L229.375,180.203125 L232.375,180.203125 L232.375,181.203125 L229.375,181.203125 Z M237.375,180.203125 L237.375,180.203125 L240.375,180.203125 L240.375,181.203125 L237.375,181.203125 Z M245.375,180.203125 L245.375,180.203125 L248.375,180.203125 L248.375,181.203125 L245.375,181.203125 Z M253.375,180.203125 L253.375,180.203125 L256.375,180.203125 L256.375,181.203125 L253.375,181.203125 Z M261.375,180.203125 L261.375,180.203125 L264.375,180.203125 L264.375,181.203125 L261.375,181.203125 Z M269.375,180.203125 L269.375,180.203125 L272.375,180.203125 L272.375,181.203125 L269.375,181.203125 Z M277.375,180.203125 L277.375,180.203125 L280.375,180.203125 L280.375,181.203125 L277.375,181.203125 Z M285.375,180.203125 L285.375,180.203125 L288.375,180.203125 L288.375,181.203125 L285.375,181.203125 Z M293.375,180.203125 L293.375,180.203125 L296.375,180.203125 L296.375,181.203125 L293.375,181.203125 Z M301.375,180.203125 L301.375,180.203125 L304.375,180.203125 L304.375,181.203125 L301.375,181.203125 Z M309.375,180.203125 L309.375,180.203125 L312.375,180.203125 L312.375,181.203125 L309.375,181.203125 Z M317.375,180.203125 L317.375,180.203125 L320.375,180.203125 L320.375,181.203125 L317.375,181.203125 Z M325.375,180.203125 L325.375,180.203125 L328.375,180.203125 L328.375,181.203125 L325.375,181.203125 Z M333.375,180.203125 L333.375,180.203125 L336.375,180.203125 L336.375,181.203125 L333.375,181.203125 Z M341.375,180.203125 L341.375,180.203125 L344.375,180.203125 L344.375,181.203125 L341.375,181.203125 Z M349.375,180.203125 L349.375,180.203125 L352.375,180.203125 L352.375,181.203125 L349.375,181.203125 Z M357.375,180.203125 L357.375,180.203125 L360.375,180.203125 L360.375,181.203125 L357.375,181.203125 Z M365.375,180.203125 L365.375,180.203125 L368.375,180.203125 L368.375,181.203125 L365.375,181.203125 Z M373.375,180.203125 L373.375,180.203125 L376.375,180.203125 L376.375,181.203125 L373.375,181.203125 Z M381.375,180.203125 L381.375,180.203125 L384.375,180.203125 L384.375,181.203125 L381.375,181.203125 Z M389.375,180.203125 L389.375,180.203125 L392.375,180.203125 L392.375,181.203125 L389.375,181.203125 Z M397.375,180.203125 L397.375,180.203125 L400.375,180.203125 L400.375,181.203125 L397.375,181.203125 Z M405.375,180.203125 L405.375,180.203125 L408.375,180.203125 L408.375,181.203125 L405.375,181.203125 Z M413.375,180.203125 L413.375,180.203125 L416.375,180.203125 L416.375,181.203125 L413.375,181.203125 Z M421.375,180.203125 L421.375,180.203125 L424.375,180.203125 L424.375,181.203125 L421.375,181.203125 Z M429.375,180.203125 L429.375,180.203125 L432.375,180.203125 L432.375,181.203125 L429.375,181.203125 Z M437.375,180.203125 L437.375,180.203125 L440.375,180.203125 L440.375,181.203125 L437.375,181.203125 Z M445.375,180.203125 L445.375,180.203125 L448.375,180.203125 L448.375,181.203125 L445.375,181.203125 Z M453.375,180.203125 L453.375,180.203125 L456.375,180.203125 L456.375,181.203125 L453.375,181.203125 Z M461.375,180.203125 L461.375,180.203125 L464.375,180.203125 L464.375,181.203125 L461.375,181.203125 Z M469.375,180.203125 L469.375,180.203125 L472.375,180.203125 L472.375,181.203125 L469.375,181.203125 Z M477.375,180.203125 L477.375,180.203125 L478.421875,180.203125 L478.421875,181.203125 L477.375,181.203125 Z M45.375,180.203125 L45.375,180.203125 L48.375,180.203125 L48.375,181.203125 L45.375,181.203125 Z" style="fill:none;stroke:rgb(210,210,210);stroke-miterlimit:10;stroke-linejoin:bevel;stroke-dasharray:3,5;"/>
    <path d="M53.375,23.15625 L53.375,23.15625 L56.375,23.15625 L56.375,24.15625 L53.375,24.15625 Z M61.375,23.15625 L61.375,23.15625 L64.375,23.15625 L64.375,24.15625 L61.375,24.15625 Z M69.375,23.15625 L69.375,23.15625 L72.375,23.15625 L72.375,24.15625 L69.375,24.15625 Z M77.375,23.15625 L77.375,23.15625 L80.375,23.15625 L80.375,24.15625 L77.375,24.15625 Z M85.375,23.15625 L85.375,23.15625 L88.375,23.15625 L88.375,24.15625 L85.375,24.15625 Z M93.375,23.15625 L93.375,23.15625 L96.375,23.15625 L96.375,24.15625 L93.375,24.15625 Z M101.375,23.15625 L101.375,23.15625 L104.375,23.15625 L104.375,24.15625 L101.375,24.15625 Z M109.375,23.15625 L109.375,23.15625 L112.375,23.15625 L112.375,24.15625 L109.375,24.15625 Z M117.375,23.15625 L117.375,23.15625 L120.375,23.15625 L120.375,24.15625 L117.375,24.15625 Z M125.375,23.15625 L125.375,23.15625 L128.375,23.15625 L128.375,24.15625 L125.375,24.15625 Z M133.375,23.15625 L133.375,23.15625 L136.375,23.15625 L136.375,24.15625 L133.375,24.15625 Z M141.375,23.15625 L141.375,23.15625 L144.375,23.15625 L144.375,24.15625 L141.375,24.15625 Z M149.375,23.15625 L149.375,23.15625 L152.375,23.15625 L152.375,24.15625 L149.375,24.15625 Z M157.375,23.15625 L157.375,23.15625 L160.375,23.15625 L160.375,24.15625 L157.375,24.15625 Z M165.375,23.15625 L165.375,23.15625 L168.375,23.15625 L168.375,24.15625 L165.375,24.15625 Z M173.375,23.15625 L173.375,23.15625 L176.375,23.15625 L176.375,24.15625 L173.375,24.15625 Z M181.375,23.15625 L181.375,23.15625 L184.375,23.15625 L184.375,24.15625 L181.375,24.15625 Z M189.375,23.15625 L189.375,23.15625 L192.375,23.15625 L192.375,24.15625 L189.375,24.15625 Z M197.375,23.15625 L197.375,23.15625 L200.375,23.15625 L200.375,24.15625 L197.375,24.15625 Z M205.375,23.15625 L205.375,23.15625 L208.375,23.15625 L208.375,24.15625 L205.375,24.15625 Z M213.375,23.15625 L213.375,23.15625 L216.375,23.15625 L216.375,24.15625 L213.375,24.15625 Z M221.375,23.15625 L221.375,23.15625 L224.375,23.15625 L224.375,24.15625 L221.375,24.15625 Z M229.375,23.15625 L229.375,23.15625 L232.375,23.15625 L232.375,24.15625 L229.375,24.15625 Z M237.375,23.15625 L237.375,23.15625 L240.375,23.15625 L240.375,24.15625 L237.375,24.15625 Z M245.375,23.15625 L245.375,23.15625 L248.375,23.15625 L248.375,24.15625 L245.375,24.15625 Z M253.375,23.15625 L253.375,23.15625 L256.375,23.15625 L256.375,24.15625 L253.375,24.15625 Z M261.375,23.15625 L261.375,23.15625 L264.375,23.15625 L264.375,24.15625 L261.375,24.15625 Z M269.375,23.15625 L269.375,23.15625 L272.375,23.15625 L272.375,24.15625 L269.375,24.15625 Z M277.375,23.15625 L277.375,23.15625 L280.375,23.15625 L280.375,24.15625 L277.375,24.15625 Z M285.375,23.15625 L285.375,23.15625 L288.375,23.15625 L288.375,24.15625 L285.375,24.15625 Z M293.375,23.15625 L293.375,23.15625 L296.375,23.15625 L296.375,24.15625 L293.375,24.15625 Z M301.375,23.15625 L301.375,23.15625 L304.375,23.15625 L304.375,24.15625 L301.375,24.15625 Z M309.375,23.15625 L309.375,23.15625 L312.375,23.15625 L312.375,24.15625 L309.375,24.15625 Z M317.375,23.15625 L317.375,23.15625 L320.375,23.15625 L320.375,24.15625 L317.375,24.15625 Z M325.375,23.15625 L325.375,23.15625 L328.375,23.15625 L328.375,24.15625 L325.375,24.15625 Z M333.375,23.15625 L333.375,23.15625 L336.375,23.15625 L336.375,24.15625 L333.375,24.15625 Z M341.375,23.15625 L341.375,23.15625 L344.375,23.15625 L344.375,24.15625 L341.375,24.15625 Z M349.375,23.15625 L349.375,23.15625 L352.375,23.15625 L352.375,24.15625 L349.375,24.15625 Z M357.375,23.15625 L357.375,23.15625 L360.375,23.15625 L360.375,24.15625 L357.375,24.15625 Z M365.375,23.15625 L365.375,23.15625 L368.375,23.15625 L368.375,24.15625 L365.375,24.15625 Z M373.375,23.15625 L373.375,23.15625 L376.375,23.15625 L376.375,24.15625 L373.375,24.15625 Z M381.375,23.15625 L381.375,23.15625 L384.375,23.15625 L384.375,24.15625 L381.375,24.15625 Z M389.375,23.15625 L389.375,23.15625 L392.375,23.15625 L392.375,24.15625 L389.375,24.15625 Z M397.375,23.15625 L397.375,23.15625 L400.375,23.15625 L400.375,24.15625 L397.375,24.15625 Z M405.375,23.15625 L405.375,23.15625 L408.375,23.15625 L408.375,24.15625 L405.375,24.15625 Z M413.375,23.15625 L413.375,23.15625 L416.375,23.15625 L416.375,24.15625 L413.375,24.15625 Z M421.375,23.15625 L421.375,23.15625 L424.375,23.15625 L424.375,24.15625 L421.375,24.15625 Z M429.375,23.15625 L429.375,23.15625 L432.375,23.15625 L432.375,24.15625 L429.375,24.15625 Z M437.375,23.15625 L437.375,23.15625 L440.375,23.15625 L440.375,24.15625 L437.375,24.15625 Z M445.375,23.15625 L445.375,23.15625 L448.375,23.15625 L448.375,24.15625 L445.375,24.15625 Z M453.375,23.15625 L453.375,23.15625 L456.375,23.15625 L456.375,24.15625 L453.375,24.15625 Z M461.375,23.15625 L461.375,23.15625 L464.375,23.15625 L464.375,24.15625 L461.375,24.15625 Z M469.375,23.15625 L469.375,23.15625 L472.375,23.15625 L472.375,24.15625 L469.375,24.15625 Z M477.375,23.15625 L477.375,23.15625 L478.421875,23.15625 L478.421875,24.15625 L477.375,24.15625 Z M45.375,23.15625 L45.375,23.15625 L48.375,23.15625 L48.375,24.15625 L45.375,24.15625 Z" style="fill:none;stroke:rgb(210,210,210);stroke-miterlimit:10;stroke-linejoin:bevel;stroke-dasharray:3,5;"/>
    <path d="M112.99726562499998,18 L112.99726562499998,18 L112.99726562499998,21 L111.99726562499998,21 L111.99726562499998,18 Z M112.99726562499998,26 L112.99726562499998,26 L112.99726562499998,29 L111.99726562499998,29 L111.99726562499998,26 Z M112.99726562499998,34 L112.99726562499998,34 L112.99726562499998,37 L111.99726562499998,37 L111.99726562499998,34 Z M112.99726562499998,42 L112.99726562499998,42 L112.99726562499998,45 L111.99726562499998,45 L111.99726562499998,42 Z M112.99726562499998,50 L112.99726562499998,50 L112.99726562499998,53 L111.99726562499998,53 L111.99726562499998,50 Z M112.99726562499998,58 L112.99726562499998,58 L112.99726562499998,61 L111.99726562499998,61 L111.99726562499998,58 Z M112.99726562499998,66 L112.99726562499998,66 L112.99726562499998,69 L111.99726562499998,69 L111.99726562499998,66 Z M112.99726562499998,74 L112.99726562499998,74 L112.99726562499998,77 L111.99726562499998,77 L111.99726562499998,74 Z M112.99726562499998,82 L112.99726562499998,82 L112.99726562499998,85 L111.99726562499998,85 L111.99726562499998,82 Z M112.99726562499998,90 L112.99726562499998,90 L112.99726562499998,93 L111.99726562499998,93 L111.99726562499998,90 Z M112.99726562499998,98 L112.99726562499998,98 L112.99726562499998,101 L111.99726562499998,101 L111.99726562499998,98 Z M112.99726562499998,106 L112.99726562499998,106 L112.99726562499998,109 L111.99726562499998,109 L111.99726562499998,106 Z M112.99726562499998,114 L112.99726562499998,114 L112.99726562499998,117 L111.99726562499998,117 L111.99726562499998,114 Z M112.99726562499998,122 L112.99726562499998,122 L112.99726562499998,125 L111.99726562499998,125 L111.99726562499998,122 Z M112.99726562499998,130 L112.99726562499998,130 L112.99726562499998,133 L111.99726562499998,133 L111.99726562499998,130 Z M112.99726562499998,138 L112.99726562499998,138 L112.99726562499998,141 L111.99726562499998,141 L111.99726562499998,138 Z M112.99726562499998,146 L112.99726562499998,146 L112.99726562499998,149 L111.99726562499998,149 L111.99726562499998,146 Z M112.99726562499998,154 L112.99726562499998,154 L112.99726562499998,157 L111.99726562499998,157 L111.99726562499998,154 Z M112.99726562499998,162 L112.99726562499998,162 L112.99726562499998,165 L111.99726562499998,165 L111.99726562499998,162 Z M112.99726562499998,170 L112.99726562499998,170 L112.99726562499998,173 L111.99726562499998,173 L111.99726562499998,170 Z M112.99726562499998,178 L112.99726562499998,178 L112.99726562499998,181 L111.99726562499998,181 L111.99726562499998,178 Z M112.99726562499998,186 L112.99726562499998,186 L112.99726562499998,189 L111.99726562499998,189 L111.99726562499998,186 Z M112.99726562499998,194 L112.99726562499998,194 L112.99726562499998,197 L111.99726562499998,197 L111.99726562499998,194 Z M112.99726562499998,202 L112.99726562499998,202 L112.99726562499998,205 L111.99726562499998,205 L111.99726562499998,202 Z M112.99726562499998,210 L112.99726562499998,210 L112.99726562499998,213 L111.99726562499998,213 L111.99726562499998,210 Z M112.99726562499998,218 L112.99726562499998,218 L112.99726562499998,221 L111.99726562499998,221 L111.99726562499998,218 Z M112.99726562499998,226 L112.99726562499998,226 L112.99726562499998,229 L111.99726562499998,229 L111.99726562499998,226 Z M112.99726562499998,234 L112.99726562499998,234 L112.99726562499998,237 L111.99726562499998,237 L111.99726562499998,234 Z M112.99726562499998,242 L112.99726562499998,242 L112.99726562499998,245 L111.99726562499998,245 L111.99726562499998,242 Z M112.99726562499998,250 L112.99726562499998,250 L112.99726562499998,253 L111.99726562499998,253 L111.99726562499998,250 Z M112.99726562499998,258 L112.99726562499998,258 L112.99726562499998,261 L111.99726562499998,261 L111.99726562499998,258 Z M112.99726562499998,266 L112.99726562499998,266 L112.99726562499998,269 L111.99726562499998,269 L111.99726562499998,266 Z M112.99726562499998,274 L112.99726562499998,274 L112.99726562499998,277 L111.99726562499998,277 L111.99726562499998,274 Z M112.99726562499998,282 L112.99726562499998,282 L112.99726562499998,285 L111.99726562499998,285 L111.99726562499998,282 Z M112.99726562499998,290 L112.99726562499998,290 L112.99726562499998,293 L111.99726562499998,293 L111.99726562499998,290 Z M112.99726562499998,298 L112.99726562499998,298 L112.99726562499998,301 L111.99726562499998,301 L111.99726562499998,298 Z M112.99726562499998,306 L112.99726562499998,306 L112.99726562499998,309 L111.99726562499998,309 L111.99726562499998,306 Z M112.99726562499998,314 L112.99726562499998,314 L112.99726562499998,317 L111.99726562499998,317 L111.99726562499998,314 Z M112.99726562499998,322 L112.99726562499998,322 L112.99726562499998,325 L111.99726562499998,325 L111.99726562499998,322 Z M112.99726562499998,330 L112.99726562499998,330 L112.99726562499998,333 L111.99726562499998,333 L111.99726562499998,330 Z M112.99726562499998,338 L112.99726562499998,338 L112.99726562499998,341 L111.99726562499998,341 L111.99726562499998,338 Z M112.99726562499998,346 L112.99726562499998,346 L112.99726562499998,349 L111.99726562499998,349 L111.99726562499998,346 Z M112.99726562499998,10 L112.99726562499998,10 L112.99726562499998,13 L111.99726562499998,13 L111.99726562499998,10 Z" style="fill:none;stroke:rgb(210,210,210);stroke-miterlimit:10;stroke-linejoin:bevel;stroke-dasharray:3,5;"/>
    <path d="M212.598046875,18 L212.598046875,18 L212.598046875,21 L211.598046875,21 L211.598046875,18 Z M212.598046875,26 L212.598046875,26 L212.598046875,29 L211.598046875,29 L211.598046875,26 Z M212.598046875,34 L212.598046875,34 L212.598046875,37 L211.598046875,37 L211.598046875,34 Z M212.598046875,42 L212.598046875,42 L212.598046875,45 L211.598046875,45 L211.598046875,42 Z M212.598046875,50 L212.598046875,50 L212.598046875,53 L211.598046875,53 L211.598046875,50 Z M212.598046875,58 L212.598046875,58 L212.598046875,61 L211.598046875,61 L211.598046875,58 Z M212.598046875,66 L212.598046875,66 L212.598046875,69 L211.598046875,69 L211.598046875,66 Z M212.598046875,74 L212.598046875,74 L212.598046875,77 L211.598046875,77 L211.598046875,74 Z M212.598046875,82 L212.598046875,82 L212.598046875,85 L211.598046875,85 L211.598046875,82 Z M212.598046875,90 L212.598046875,90 L212.598046875,93 L211.598046875,93 L211.598046875,90 Z M212.598046875,98 L212.598046875,98 L212.598046875,101 L211.598046875,101 L211.598046875,98 Z M212.598046875,106 L212.598046875,106 L212.598046875,109 L211.598046875,109 L211.598046875,106 Z M212.598046875,114 L212.598046875,114 L212.598046875,117 L211.598046875,117 L211.598046875,114 Z M212.598046875,122 L212.598046875,122 L212.598046875,125 L211.598046875,125 L211.598046875,122 Z M212.598046875,130 L212.598046875,130 L212.598046875,133 L211.598046875,133 L211.598046875,130 Z M212.598046875,138 L212.598046875,138 L212.598046875,141 L211.598046875,141 L211.598046875,138 Z M212.598046875,146 L212.598046875,146 L212.598046875,149 L211.598046875,149 L211.598046875,146 Z M212.598046875,154 L212.598046875,154 L212.598046875,157 L211.598046875,157 L211.598046875,154 Z M212.598046875,162 L212.598046875,162 L212.598046875,165 L211.598046875,165 L211.598046875,162 Z M212.598046875,170 L212.598046875,170 L212.598046875,173 L211.598046875,173 L211.598046875,170 Z M212.598046875,178 L212.598046875,178 L212.598046875,181 L211.598046875,181 L211.598046875,178 Z M212.598046875,186 L212.598046875,186 L212.598046875,189 L211.598046875,189 L211.598046875,186 Z M212.598046875,194 L212.598046875,194 L212.598046875,197 L211.598046875,197 L211.598046875,194 Z M212.598046875,202 L212.598046875,202 L212.598046875,205 L211.598046875,205 L211.598046875,202 Z M212.598046875,210 L212.598046875,210 L212.598046875,213 L211.598046875,213 L211.598046875,210 Z M212.598046875,218 L212.598046875,218 L212.598046875,221 L211.598046875,221 L211.598046875,218 Z M212.598046875,226 L212.598046875,226 L212.598046875,229 L211.598046875,229 L211.598046875,226 Z M212.598046875,234 L212.598046875,234 L212.598046875,237 L211.598046875,237 L211.598046875,234 Z M212.598046875,242 L212.598046875,242 L212.598046875,245 L211.598046875,245 L211.598046875,242 Z M212.598046875,250 L212.598046875,250 L212.598046875,253 L211.598046875,253 L211.598046875,250 Z M212.598046875,258 L212.598046875,258 L212.598046875,261 L211.598046875,261 L211.598046875,258 Z M212.598046875,266 L212.598046875,266 L212.598046875,269 L211.598046875,269 L211.598046875,266 Z M212.598046875,274 L212.598046875,274 L212.598046875,277 L211.598046875,277 L211.598046875,274 Z M212.598046875,282 L212.598046875,282 L212.598046875,285 L211.598046875,285 L211.598046875,282 Z M212.598046875,290 L212.598046875,290 L212.598046875,293 L211.598046875,293 L211.598046875,290 Z M212.598046875,298 L212.598046875,298 L212.598046875,301 L211.598046875,301 L211.598046875,298 Z M212.598046875,306 L212.598046875,306 L212.598046875,309 L211.598046875,309 L211.598046875,306 Z M212.598046875,314 L212.598046875,314 L212.598046875,317 L211.598046875,317 L211.598046875,314 Z M212.598046875,322 L212.598046875,322 L212.598046875,325 L211.598046875,325 L211.598046875,322 Z M212.598046875,330 L212.598046875,330 L212.598046875,333 L211.598046875,333 L211.598046875,330 Z M212.598046875,338 L212.598046875,338 L212.598046875,341 L211.598046875,341 L211.598046875,338 Z M212.598046875,346 L212.598046875,346 L212.598046875,349 L211.598046875,349 L211.598046875,346 Z M212.598046875,10 L212.598046875,10 L212.598046875,13 L211.598046875,13 L211.598046875,10 Z" style="fill:none;stroke:rgb(210,210,210);stroke-miterlimit:10;stroke-linejoin:bevel;stroke-dasharray:3,5;"/>
    <path d="M312.198828125,18 L312.198828125,18 L312.198828125,21 L311.198828125,21 L311.198828125,18 Z M312.198828125,26 L312.198828125,26 L312.198828125,29 L311.198828125,29 L311.198828125,26 Z M312.198828125,34 L312.198828125,34 L312.198828125,37 L311.198828125,37 L311.198828125,34 Z M312.198828125,42 L312.198828125,42 L312.198828125,45 L311.198828125,45 L311.198828125,42 Z M312.198828125,50 L312.198828125,50 L312.198828125,53 L311.198828125,53 L311.198828125,50 Z M312.198828125,58 L312.198828125,58 L312.198828125,61 L311.198828125,61 L311.198828125,58 Z M312.198828125,66 L312.198828125,66 L312.198828125,69 L311.198828125,69 L311.198828125,66 Z M312.198828125,74 L312.198828125,74 L312.198828125,77 L311.198828125,77 L311.198828125,74 Z M312.198828125,82 L312.198828125,82 L312.198828125,85 L311.198828125,85 L311.198828125,82 Z M312.198828125,90 L312.198828125,90 L312.198828125,93 L311.198828125,93 L311.198828125,90 Z M312.198828125,98 L312.198828125,98 L312.198828125,101 L311.198828125,101 L311.198828125,98 Z M312.198828125,106 L312.198828125,106 L312.198828125,109 L311.198828125,109 L311.198828125,106 Z M312.198828125,114 L312.198828125,114 L312.198828125,117 L311.198828125,117 L311.198828125,114 Z M312.198828125,122 L312.198828125,122 L312.198828125,125 L311.198828125,125 L311.198828125,122 Z M312.198828125,130 L312.198828125,130 L312.198828125,133 L311.198828125,133 L311.198828125,130 Z M312.198828125,138 L312.198828125,138 L312.198828125,141 L311.198828125,141 L311.198828125,138 Z M312.198828125,146 L312.198828125,146 L312.198828125,149 L311.198828125,149 L311.198828125,146 Z M312.198828125,154 L312.198828125,154 L312.198828125,157 L311.198828125,157 L311.198828125,154 Z M312.198828125,162 L312.198828125,162 L312.198828125,165 L311.198828125,165 L311.198828125,162 Z M312.198828125,170 L312.198828125,170 L312.198828125,173 L311.198828125,173 L311.198828125,170 Z M312.198828125,178 L312.198828125,178 L312.198828125,181 L311.198828125,181 L311.198828125,178 Z M312.198828125,186 L312.198828125,186 L312.198828125,189 L311.198828125,189 L311.198828125,186 Z M312.198828125,194 L312.198828125,194 L312.198828125,197 L311.198828125,197 L311.198828125,194 Z M312.198828125,202 L312.198828125,202 L312.198828125,205 L311.198828125,205 L311.198828125,202 Z M312.198828125,210 L312.198828125,210 L312.198828125,213 L311.198828125,213 L311.198828125,210 Z M312.198828125,218 L312.198828125,218 L312.198828125,221 L311.198828125,221 L311.198828125,218 Z M312.198828125,226 L312.198828125,226 L312.198828125,229 L311.198828125,229 L311.198828125,226 Z M312.198828125,234 L312.198828125,234 L312.198828125,237 L311.198828125,237 L311.198828125,234 Z M312.198828125,242 L312.198828125,242 L312.198828125,245 L311.198828125,245 L311.198828125,242 Z M312.198828125,250 L312.198828125,250 L312.198828125,253 L311.198828125,253 L311.198828125,250 Z M312.198828125,258 L312.198828125,258 L312.198828125,261 L311.198828125,261 L311.198828125,258 Z M312.198828125,266 L312.198828125,266 L312.198828125,269 L311.198828125,269 L311.198828125,266 Z M312.198828125,274 L312.198828125,274 L312.198828125,277 L311.198828125,277 L311.198828125,274 Z M312.198828125,282 L312.198828125,282 L312.198828125,285 L311.198828125,285 L311.198828125,282 Z M312.198828125,290 L312.198828125,290 L312.198828125,293 L311.198828125,293 L311.198828125,290 Z M312.198828125,298 L312.198828125,298 L312.198828125,301 L311.198828125,301 L311.198828125,298 Z M312.198828125,306 L312.198828125,306 L312.198828125,309 L311.198828125,309 L311.198828125,306 Z M312.198828125,314 L312.198828125,314 L312.198828125,317 L311.198828125,317 L311.198828125,314 Z M312.198828125,322 L312.198828125,322 L312.198828125,325 L311.198828125,325 L311.198828125,322 Z M312.198828125,330 L312.198828125,330 L312.198828125,333 L311.198828125,333 L311.198828125,330 Z M312.198828125,338 L312.198828125,338 L312.198828125,341 L311.198828125,341 L311.198828125,338 Z M312.198828125,346 L312.198828125,346 L312.198828125,349 L311.198828125,349 L311.198828125,346 Z M312.198828125,10 L312.198828125,10 L312.198828125,13 L311.198828125,13 L311.198828125,10 Z" style="fill:none;stroke:rgb(210,210,210);stroke-miterlimit:10;stroke-linejoin:bevel;stroke-dasharray:3,5;"/>
    <path d="M411.79960937500005,18 L411.79960937500005,18 L411.79960937500005,21 L410.79960937500005,21 L410.79960937500005,18 Z M411.79960937500005,26 L411.79960937500005,26 L411.79960937500005,29 L410.79960937500005,29 L410.79960937500005,26 Z M411.79960937500005,34 L411.79960937500005,34 L411.79960937500005,37 L410.79960937500005,37 L410.79960937500005,34 Z M411.79960937500005,42 L411.79960937500005,42 L411.79960937500005,45 L410.79960937500005,45 L410.79960937500005,42 Z M411.79960937500005,50 L411.79960937500005,50 L411.79960937500005,53 L410.79960937500005,53 L410.79960937500005,50 Z M411.79960937500005,58 L411.79960937500005,58 L411.79960937500005,61 L410.79960937500005,61 L410.79960937500005,58 Z M411.79960937500005,66 L411.79960937500005,66 L411.79960937500005,69 L410.79960937500005,69 L410.79960937500005,66 Z M411.79960937500005,74 L411.79960937500005,74 L411.79960937500005,77 L410.79960937500005,77 L410.79960937500005,74 Z M411.79960937500005,82 L411.79960937500005,82 L411.79960937500005,85 L410.79960937500005,85 L410.79960937500005,82 Z M411.79960937500005,90 L411.79960937500005,90 L411.79960937500005,93 L410.79960937500005,93 L410.79960937500005,90 Z M411.79960937500005,98 L411.79960937500005,98 L411.79960937500005,101 L410.79960937500005,101 L410.79960937500005,98 Z M411.79960937500005,106 L411.79960937500005,106 L411.79960937500005,109 L410.79960937500005,109 L410.79960937500005,106 Z M411.79960937500005,114 L411.79960937500005,114 L411.79960937500005,117 L410.79960937500005,117 L410.79960937500005,114 Z M411.79960937500005,122 L411.79960937500005,122 L411.79960937500005,125 L410.79960937500005,125 L410.79960937500005,122 Z M411.79960937500005,130 L411.79960937500005,130 L411.79960937500005,133 L410.79960937500005,133 L410.79960937500005,130 Z M411.79960937500005,138 L411.79960937500005,138 L411.79960937500005,141 L410.79960937500005,141 L410.79960937500005,138 Z M411.79960937500005,146 L411.79960937500005,146 L411.79960937500005,149 L410.79960937500005,149 L410.79960937500005,146 Z M411.79960937500005,154 L411.79960937500005,154 L411.79960937500005,157 L410.79960937500005,157 L410.79960937500005,154 Z M411.79960937500005,162 L411.79960937500005,162 L411.79960937500005,165 L410.79960937500005,165 L410.79960937500005,162 Z M411.79960937500005,170 L411.79960937500005,170 L411.79960937500005,173 L410.79960937500005,173 L410.79960937500005,170 Z M411.79960937500005,178 L411.79960937500005,178 L411.79960937500005,181 L410.79960937500005,181 L410.79960937500005,178 Z M411.79960937500005,186 L411.79960937500005,186 L411.79960937500005,189 L410.79960937500005,189 L410.79960937500005,186 Z M411.79960937500005,194 L411.79960937500005,194 L411.79960937500005,197 L410.79960937500005,197 L410.79960937500005,194 Z M411.79960937500005,202 L411.79960937500005,202 L411.79960937500005,205 L410.79960937500005,205 L410.79960937500005,202 Z M411.79960937500005,210 L411.79960937500005,210 L411.79960937500005,213 L410.79960937500005,213 L410.79960937500005,210 Z M411.79960937500005,218 L411.79960937500005,218 L411.79960937500005,221 L410.79960937500005,221 L410.79960937500005,218 Z M411.79960937500005,226 L411.79960937500005,226 L411.79960937500005,229 L410.79960937500005,229 L410.79960937500005,226 Z M411.79960937500005,234 L411.79960937500005,234 L411.79960937500005,237 L410.79960937500005,237 L410.79960937500005,234 Z M411.79960937500005,242 L411.79960937500005,242 L411.79960937500005,245 L410.79960937500005,245 L410.79960937500005,242 Z M411.79960937500005,250 L411.79960937500005,250 L411.79960937500005,253 L410.79960937500005,253 L410.79960937500005,250 Z M411.79960937500005,258 L411.79960937500005,258 L411.79960937500005,261 L410.79960937500005,261 L410.79960937500005,258 Z M411.79960937500005,266 L411.79960937500005,266 L411.79960937500005,269 L410.79960937500005,269 L410.79960937500005,266 Z M411.79960937500005,274 L411.79960937500005,274 L411.79960937500005,277 L410.79960937500005,277 L410.79960937500005,274 Z M411.79960937500005,282 L411.79960937500005,282 L411.79960937500005,285 L410.79960937500005,285 L410.79960937500005,282 Z M411.79960937500005,290 L411.79960937500005,290 L411.79960937500005,293 L410.79960937500005,293 L410.79960937500005,290 Z M411.79960937500005,298 L411.79960937500005,298 L411.79960937500005,301 L410.79960937500005,301 L410.79960937500005,298 Z M411.79960937500005,306 L411.79960937500005,306 L411.79960937500005,309 L410.79960937500005,309 L410.79960937500005,306 Z M411.79960937500005,314 L411.79960937500005,314 L411.79960937500005,317 L410.79960937500005,317 L410.79960937500005,314 Z M411.79960937500005,322 L411.79960937500005,322 L411.79960937500005,325 L410.79960937500005,325 L410.79960937500005,322 Z M411.79960937500005,330 L411.79960937500005,330 L411.79960937500005,333 L410.79960937500005,333 L410.79960937500005,330 Z M411.79960937500005,338 L411.79960937500005,338 L411.79960937500005,341 L410.79960937500005,341 L410.79960937500005,338 Z M411.79960937500005,346 L411.79960937500005,346 L411.79960937500005,349 L410.79960937500005,349 L410.79960937500005,346 Z M411.79960937500005,10 L411.79960937500005,10 L411.79960937500005,13 L410.79960937500005,13 L410.79960937500005,10 Z" style="fill:none;stroke:rgb(210,210,210);stroke-miterlimit:10;stroke-linejoin:bevel;stroke-dasharray:3,5;"/>
    <rect height="341.40625" style="fill:none;stroke:rgb(130,130,130);stroke-miterlimit:10;stroke-linejoin:bevel;stroke-dasharray:3,0;" width="433.046875" x="45.375" y="10"/>
  </g>
  <g clip-path="url(#clip800154048)">
    <path d="M67.67691406249997,180.703125 L157.3176171875,180.703125 L157.3176171875,337.75 L67.67691406249997,337.75 Z" style="fill:rgb(0,55,255);fill-opacity:0.705882352941177;stroke:none;"/>
    <path d="M167.2776953125,23.65625 L256.9183984375,23.65625 L256.9183984375,337.75 L167.2776953125,337.75 Z" style="fill:rgb(0,55,255);fill-opacity:0.705882352941177;stroke:none;"/>
    <path d="M266.8784765625,180.703125 L356.5191796875,180.703125 L356.5191796875,337.75 L266.8784765625,337.75 Z" style="fill:rgb(0,55,255);fill-opacity:0.705882352941177;stroke:none;"/>
    <path d="M366.4792578125,180.703125 L456.1199609375,180.703125 L456.1199609375,337.75 L366.4792578125,337.75 Z" style="fill:rgb(0,55,255);fill-opacity:0.705882352941177;stroke:none;"/>
  </g>
  <g>
    <rect height="40" style="fill:rgb(255,255,255);stroke:none;" width="101.578125" x="492.421875" y="160.703125"/>
    <rect height="40" style="fill:none;stroke:rgb(130,130,130);stroke-miterlimit:10;stroke-linejoin:bevel;stroke-dasharray:3,0;" width="101.578125" x="492.421875" y="160.703125"/>
    <rect height="20" style="fill:rgb(0,55,255);fill-opacity:0.705882352941177;stroke:none;" width="20" x="502.421875" y="170.703125"/>
  </g>
  <g transform="translate(532.421875 185.796875)">
    <path d="M0.875,-0 L0.875,-7.875 L1.921875,-7.875 L1.921875,-4.640625 L6.015625,-4.640625 L6.015625,-7.875 L7.0625,-7.875 L7.0625,-0 L6.015625,-0 L6.015625,-3.71875 L1.921875,-3.71875 L1.921875,-0 L0.875,-0 Z M8.67822265625,-6.765625 L8.67822265625,-7.875 L9.64697265625,-7.875 L9.64697265625,-6.765625 L8.67822265625,-6.765625 Z M8.67822265625,0 L8.67822265625,-5.703125 L9.64697265625,-5.703125 L9.64697265625,0 L8.67822265625,0 Z M10.7314453125,-1.703125 L11.6845703125,-1.859375 Q11.7626953125,-1.28125 12.1220703125,-0.96875 Q12.4970703125,-0.671875 13.1533203125,-0.671875 Q13.8251953125,-0.671875 14.1376953125,-0.9375 Q14.4658203125,-1.203125 14.4658203125,-1.578125 Q14.4658203125,-1.90625 14.1845703125,-2.09375 Q13.9814453125,-2.21875 13.2001953125,-2.421875 Q12.1376953125,-2.6875 11.7158203125,-2.875 Q11.3095703125,-3.078125 11.0908203125,-3.421875 Q10.8876953125,-3.765625 10.8876953125,-4.1875 Q10.8876953125,-4.578125 11.0595703125,-4.890625 Q11.2314453125,-5.21875 11.5439453125,-5.4375 Q11.7626953125,-5.609375 12.1533203125,-5.71875 Q12.5439453125,-5.828125 12.9814453125,-5.828125 Q13.6533203125,-5.828125 14.1533203125,-5.640625 Q14.6689453125,-5.453125 14.9033203125,-5.109375 Q15.1533203125,-4.78125 15.2470703125,-4.234375 L14.3095703125,-4.109375 Q14.2314453125,-4.546875 13.9189453125,-4.78125 Q13.6220703125,-5.03125 13.0595703125,-5.03125 Q12.3876953125,-5.03125 12.1064453125,-4.8125 Q11.8251953125,-4.59375 11.8251953125,-4.296875 Q11.8251953125,-4.109375 11.9345703125,-3.96875 Q12.0595703125,-3.8125 12.3095703125,-3.703125 Q12.4501953125,-3.65625 13.1689453125,-3.453125 Q14.1845703125,-3.1875 14.5908203125,-3.015625 Q14.9970703125,-2.84375 15.2314453125,-2.5 Q15.4658203125,-2.171875 15.4658203125,-1.671875 Q15.4658203125,-1.1875 15.1845703125,-0.765625 Q14.9033203125,-0.34375 14.3720703125,-0.109375 Q13.8408203125,0.125 13.1689453125,0.125 Q12.0595703125,0.125 11.4658203125,-0.328125 Q10.8876953125,-0.796875 10.7314453125,-1.703125 Z M18.7314453125,-0.859375 L18.8564453125,-0.015625 Q18.4501953125,0.078125 18.1376953125,0.078125 Q17.6064453125,0.078125 17.3095703125,-0.09375 Q17.0283203125,-0.265625 16.9033203125,-0.53125 Q16.7939453125,-0.796875 16.7939453125,-1.671875 L16.7939453125,-4.953125 L16.0751953125,-4.953125 L16.0751953125,-5.703125 L16.7939453125,-5.703125 L16.7939453125,-7.109375 L17.7470703125,-7.703125 L17.7470703125,-5.703125 L18.7314453125,-5.703125 L18.7314453125,-4.953125 L17.7470703125,-4.953125 L17.7470703125,-1.609375 Q17.7470703125,-1.203125 17.7939453125,-1.078125 Q17.8564453125,-0.96875 17.9658203125,-0.890625 Q18.0908203125,-0.828125 18.2939453125,-0.828125 Q18.4658203125,-0.828125 18.7314453125,-0.859375 Z M19.30322265625,-2.859375 Q19.30322265625,-4.4375 20.19384765625,-5.203125 Q20.92822265625,-5.828125 21.99072265625,-5.828125 Q23.16259765625,-5.828125 23.89697265625,-5.0625 Q24.64697265625,-4.296875 24.64697265625,-2.9375 Q24.64697265625,-1.828125 24.31884765625,-1.1875 Q23.99072265625,-0.5625 23.35009765625,-0.21875 Q22.72509765625,0.125 21.99072265625,0.125 Q20.78759765625,0.125 20.03759765625,-0.640625 Q19.30322265625,-1.40625 19.30322265625,-2.859375 Z M20.30322265625,-2.859375 Q20.30322265625,-1.75 20.77197265625,-1.203125 Q21.25634765625,-0.671875 21.99072265625,-0.671875 Q22.70947265625,-0.671875 23.17822265625,-1.21875 Q23.66259765625,-1.765625 23.66259765625,-2.890625 Q23.66259765625,-3.9375 23.17822265625,-4.484375 Q22.69384765625,-5.03125 21.99072265625,-5.03125 Q21.25634765625,-5.03125 20.77197265625,-4.484375 Q20.30322265625,-3.953125 20.30322265625,-2.859375 Z M25.6083984375,0.46875 L26.5458984375,0.609375 Q26.6083984375,1.046875 26.8740234375,1.25 Q27.2333984375,1.515625 27.8583984375,1.515625 Q28.5302734375,1.515625 28.8896484375,1.25 Q29.2646484375,0.984375 29.3896484375,0.5 Q29.4677734375,0.203125 29.4677734375,-0.75 Q28.8271484375,0 27.8740234375,0 Q26.7021484375,0 26.0615234375,-0.84375 Q25.4208984375,-1.703125 25.4208984375,-2.890625 Q25.4208984375,-3.703125 25.7177734375,-4.390625 Q26.0146484375,-5.078125 26.5615234375,-5.453125 Q27.1240234375,-5.828125 27.8896484375,-5.828125 Q28.8896484375,-5.828125 29.5458984375,-5.015625 L29.5458984375,-5.703125 L30.4365234375,-5.703125 L30.4365234375,-0.78125 Q30.4365234375,0.5625 30.1708984375,1.109375 Q29.9052734375,1.671875 29.3115234375,1.984375 Q28.7177734375,2.3125 27.8583984375,2.3125 Q26.8427734375,2.3125 26.2177734375,1.84375 Q25.5927734375,1.390625 25.6083984375,0.46875 Z M26.4052734375,-2.953125 Q26.4052734375,-1.828125 26.8427734375,-1.3125 Q27.2958984375,-0.796875 27.9677734375,-0.796875 Q28.6396484375,-0.796875 29.0927734375,-1.3125 Q29.5458984375,-1.828125 29.5458984375,-2.921875 Q29.5458984375,-3.96875 29.0771484375,-4.5 Q28.6083984375,-5.03125 27.9521484375,-5.03125 Q27.3115234375,-5.03125 26.8583984375,-4.5 Q26.4052734375,-3.984375 26.4052734375,-2.953125 Z M31.89794921875,0 L31.89794921875,-5.703125 L32.75732421875,-5.703125 L32.75732421875,-4.84375 Q33.10107421875,-5.453125 33.38232421875,-5.640625 Q33.66357421875,-5.828125 33.99169921875,-5.828125 Q34.49169921875,-5.828125 34.99169921875,-5.515625 L34.66357421875,-4.625 Q34.30419921875,-4.828125 33.94482421875,-4.828125 Q33.63232421875,-4.828125 33.38232421875,-4.640625 Q33.13232421875,-4.453125 33.02294921875,-4.109375 Q32.86669921875,-3.59375 32.86669921875,-2.984375 L32.86669921875,0 L31.89794921875,0 Z M39.29541015625,-0.703125 Q38.74853515625,-0.25 38.24853515625,-0.0625 Q37.76416015625,0.125 37.18603515625,0.125 Q36.24853515625,0.125 35.73291015625,-0.328125 Q35.23291015625,-0.796875 35.23291015625,-1.5 Q35.23291015625,-1.921875 35.42041015625,-2.265625 Q35.62353515625,-2.609375 35.92041015625,-2.8125 Q36.23291015625,-3.03125 36.62353515625,-3.140625 Q36.90478515625,-3.21875 37.48291015625,-3.28125 Q38.65478515625,-3.421875 39.20166015625,-3.625 Q39.21728515625,-3.8125 39.21728515625,-3.875 Q39.21728515625,-4.46875 38.93603515625,-4.703125 Q38.57666015625,-5.03125 37.84228515625,-5.03125 Q37.15478515625,-5.03125 36.82666015625,-4.796875 Q36.51416015625,-4.5625 36.35791015625,-3.953125 L35.40478515625,-4.078125 Q35.52978515625,-4.6875 35.82666015625,-5.0625 Q36.12353515625,-5.4375 36.68603515625,-5.625 Q37.24853515625,-5.828125 37.98291015625,-5.828125 Q38.71728515625,-5.828125 39.17041015625,-5.65625 Q39.62353515625,-5.484375 39.82666015625,-5.21875 Q40.04541015625,-4.96875 40.13916015625,-4.578125 Q40.18603515625,-4.328125 40.18603515625,-3.671875 L40.18603515625,-2.390625 Q40.18603515625,-1.046875 40.24853515625,-0.6875 Q40.31103515625,-0.328125 40.49853515625,0 L39.48291015625,0 Q39.32666015625,-0.296875 39.29541015625,-0.703125 Z M39.20166015625,-2.859375 Q38.68603515625,-2.640625 37.62353515625,-2.5 Q37.02978515625,-2.40625 36.77978515625,-2.296875 Q36.54541015625,-2.203125 36.40478515625,-1.984375 Q36.26416015625,-1.78125 36.26416015625,-1.53125 Q36.26416015625,-1.140625 36.56103515625,-0.875 Q36.85791015625,-0.625 37.42041015625,-0.625 Q37.98291015625,-0.625 38.40478515625,-0.875 Q38.84228515625,-1.125 39.06103515625,-1.546875 Q39.20166015625,-1.875 39.20166015625,-2.515625 L39.20166015625,-2.859375 Z M41.6787109375,0 L41.6787109375,-5.703125 L42.5537109375,-5.703125 L42.5537109375,-4.90625 Q42.8193359375,-5.328125 43.2568359375,-5.578125 Q43.7099609375,-5.828125 44.2724609375,-5.828125 Q44.9130859375,-5.828125 45.3193359375,-5.5625 Q45.7255859375,-5.3125 45.8974609375,-4.828125 Q46.5693359375,-5.828125 47.6474609375,-5.828125 Q48.5068359375,-5.828125 48.9599609375,-5.359375 Q49.4130859375,-4.890625 49.4130859375,-3.921875 L49.4130859375,0 L48.4599609375,0 L48.4599609375,-3.59375 Q48.4599609375,-4.171875 48.3662109375,-4.421875 Q48.2724609375,-4.6875 48.0224609375,-4.84375 Q47.7724609375,-5 47.4443359375,-5 Q46.8349609375,-5 46.4287109375,-4.59375 Q46.0380859375,-4.1875 46.0380859375,-3.3125 L46.0380859375,0 L45.0693359375,0 L45.0693359375,-3.703125 Q45.0693359375,-4.34375 44.8349609375,-4.671875 Q44.6005859375,-5 44.0693359375,-5 Q43.6630859375,-5 43.3037109375,-4.78125 Q42.9599609375,-4.5625 42.8037109375,-4.140625 Q42.6474609375,-3.734375 42.6474609375,-2.953125 L42.6474609375,0 L41.6787109375,0 Z" style="fill:rgb(0,0,0);stroke:none;"/>
  </g>
</svg>
